<svg id="Layer_1" data-name="Layer 1" xmlns="http://www.w3.org/2000/svg" viewBox="0 0 1440 900"><title>Artboard 1</title><path d="M988,103a47,47,0,0,1,47,47V750a47,47,0,0,1-47,47H88a47,47,0,0,1-47-47V150a47,47,0,0,1,47-47H988m0-3H88a50.15,50.15,0,0,0-50,50V750a50.15,50.15,0,0,0,50,50H988a50.15,50.15,0,0,0,50-50V150a50.15,50.15,0,0,0-50-50Z"/><path d="M86.55,175.47A14.75,14.75,0,0,0,94,177.59c4.28,0,6.77-2.26,6.77-5.52,0-3-1.73-4.76-6.09-6.44-5.28-1.87-8.55-4.6-8.55-9.17,0-5,4.18-8.78,10.47-8.78a14.77,14.77,0,0,1,7.15,1.58l-1.15,3.41a13,13,0,0,0-6.15-1.53c-4.41,0-6.09,2.64-6.09,4.84,0,3,2,4.52,6.43,6.25,5.47,2.11,8.25,4.75,8.25,9.5,0,5-3.69,9.31-11.32,9.31A16.76,16.76,0,0,1,85.5,179Z"/><path d="M110.79,180.56V148.21h4.56l10.37,16.37a90.69,90.69,0,0,1,5.81,10.51l.1-.05c-.39-4.32-.48-8.25-.48-13.29V148.21h3.93v32.35h-4.22l-10.27-16.41a101.17,101.17,0,0,1-6-10.81l-.14,0c.24,4.08.33,8,.33,13.35v13.82Z"/><path d="M353,468a64,64,0,1,1-64,64,64.07,64.07,0,0,1,64-64m0-3a67,67,0,1,0,67,67,67,67,0,0,0-67-67Z"/><path d="M527,468a64,64,0,1,1-64,64,64.07,64.07,0,0,1,64-64m0-3a67,67,0,1,0,67,67,67,67,0,0,0-67-67Z"/><path d="M330.78,515.23a47.9,47.9,0,0,1,8-.62c4.13,0,7.16,1,9.08,2.68a8.73,8.73,0,0,1,2.83,6.77,9.48,9.48,0,0,1-2.5,6.91c-2.2,2.36-5.81,3.56-9.89,3.56a14.41,14.41,0,0,1-3.36-.29v13h-4.17Zm4.17,15.6a14.07,14.07,0,0,0,3.46.34c5,0,8.11-2.45,8.11-6.92,0-4.27-3-6.33-7.63-6.33a17.81,17.81,0,0,0-3.94.33Z"/><path d="M364,519.93h-.09l-5.43,2.93-.81-3.21,6.81-3.65h3.6v31.2H364Z"/><path d="M504.54,514.92a49.23,49.23,0,0,1,8-.62c4.13,0,7.15,1,9.07,2.69a8.68,8.68,0,0,1,2.83,6.77,9.54,9.54,0,0,1-2.49,6.91c-2.21,2.35-5.81,3.55-9.89,3.55a14.36,14.36,0,0,1-3.36-.29v13h-4.18Zm4.18,15.6a13.93,13.93,0,0,0,3.45.34c5.05,0,8.12-2.45,8.12-6.91,0-4.27-3-6.34-7.63-6.34a17.59,17.59,0,0,0-3.94.34Z"/><path d="M528.59,546.89V544.3l3.31-3.21c8-7.59,11.57-11.62,11.62-16.33,0-3.16-1.54-6.09-6.19-6.09a10.62,10.62,0,0,0-6.63,2.64l-1.34-3a13.71,13.71,0,0,1,8.83-3.17c6.72,0,9.55,4.61,9.55,9.08,0,5.76-4.17,10.41-10.75,16.75l-2.5,2.3v.1h14v3.5Z"/><path d="M439,233c49.71,0,96.41,4.86,131.5,13.68C603.37,254.94,623,266.27,623,277s-19.63,22.06-52.5,30.32C535.41,316.14,488.71,321,439,321s-96.41-4.86-131.5-13.68C274.63,299.06,255,287.73,255,277s19.63-22.06,52.5-30.32C342.59,237.86,389.29,233,439,233m0-3c-103.28,0-187,21-187,47s83.72,47,187,47,187-21,187-47-83.72-47-187-47Z"/><path d="M412.14,259.11a49.23,49.23,0,0,1,8-.62c4.13,0,7.15,1,9.07,2.69a8.66,8.66,0,0,1,2.83,6.76,9.55,9.55,0,0,1-2.49,6.92c-2.21,2.35-5.81,3.55-9.89,3.55a14.36,14.36,0,0,1-3.36-.29v13h-4.18Zm4.18,15.6a14,14,0,0,0,3.46.34c5,0,8.11-2.45,8.11-6.91,0-4.28-3-6.34-7.63-6.34a17,17,0,0,0-3.94.34Z"/><path d="M437.68,291.08V258.73h4.56l10.37,16.37a92.22,92.22,0,0,1,5.81,10.51l.09-.05c-.38-4.32-.48-8.26-.48-13.3V258.73H462v32.35h-4.22l-10.28-16.42a104.67,104.67,0,0,1-6.05-10.8l-.14.05c.24,4.08.34,8,.34,13.35v13.82Z"/><rect x="188.5" y="561.5" width="128" height="76" fill="#fff"/><path d="M315,563v73H190V563H315m3-3H187v79H318V560Z"/><rect x="565.5" y="561.5" width="128" height="76" fill="#fff"/><path d="M692,563v73H567V563H692m3-3H564v79H695V560Z"/><path d="M227.45,608.9a14.82,14.82,0,0,0,7.49,2.11c4.27,0,6.77-2.25,6.77-5.52,0-3-1.73-4.75-6.1-6.43-5.28-1.87-8.55-4.61-8.55-9.17,0-5,4.18-8.78,10.47-8.78a14.77,14.77,0,0,1,7.15,1.58l-1.15,3.41a12.85,12.85,0,0,0-6.14-1.54c-4.42,0-6.1,2.64-6.1,4.85,0,3,2,4.51,6.43,6.24,5.47,2.11,8.26,4.76,8.26,9.51,0,5-3.7,9.31-11.33,9.31a16.76,16.76,0,0,1-8.26-2.06Z"/><path d="M251.69,581.64h4.17v15.6H256c.86-1.25,1.73-2.4,2.54-3.46l9.89-12.14h5.19l-11.72,13.72L274.54,614h-5L258.94,598.1l-3.08,3.55V614h-4.17Z"/><path d="M604.45,609.36a14.82,14.82,0,0,0,7.49,2.11c4.27,0,6.77-2.25,6.77-5.52,0-3-1.73-4.75-6.1-6.43-5.28-1.87-8.55-4.61-8.55-9.17,0-5,4.18-8.78,10.47-8.78a14.66,14.66,0,0,1,7.15,1.58l-1.15,3.41a12.87,12.87,0,0,0-6.15-1.54c-4.41,0-6.09,2.64-6.09,4.85,0,3,2,4.51,6.43,6.24,5.47,2.11,8.26,4.75,8.26,9.51,0,5-3.7,9.31-11.33,9.31a16.76,16.76,0,0,1-8.26-2.06Z"/><path d="M628.69,582.09h4.17V597.7H633c.86-1.25,1.73-2.4,2.54-3.46l9.89-12.15h5.19l-11.72,13.73,12.63,18.63h-4.95l-10.65-15.89-3.08,3.55v12.34h-4.17Z"/><line x1="353.5" y1="318.5" x2="353.5" y2="465.5" fill="none" stroke="#000" stroke-miterlimit="10" stroke-width="3"/><line x1="527.5" y1="318.5" x2="527.5" y2="465.5" fill="none" stroke="#000" stroke-miterlimit="10" stroke-width="3"/><path d="M920.41,718.87a49.23,49.23,0,0,1,8-.62c4.13,0,7.15,1,9.07,2.69a8.66,8.66,0,0,1,2.83,6.77,9.54,9.54,0,0,1-2.49,6.91c-2.21,2.35-5.81,3.55-9.89,3.55a14.36,14.36,0,0,1-3.36-.29v13h-4.18Zm4.18,15.6a14,14,0,0,0,3.46.34c5,0,8.11-2.45,8.11-6.91,0-4.28-3-6.34-7.63-6.34a17,17,0,0,0-3.94.34Z"/><path d="M944.46,750.84v-2.59l3.31-3.22c8-7.58,11.57-11.61,11.62-16.32,0-3.17-1.54-6.09-6.19-6.09a10.65,10.65,0,0,0-6.63,2.64l-1.34-3a13.71,13.71,0,0,1,8.83-3.17c6.72,0,9.55,4.61,9.55,9.07,0,5.77-4.17,10.42-10.75,16.76l-2.49,2.3v.1h14v3.5Z"/><path d="M970.57,718.87a49.23,49.23,0,0,1,8-.62c4.13,0,7.15,1,9.07,2.69a8.66,8.66,0,0,1,2.83,6.77,9.54,9.54,0,0,1-2.49,6.91c-2.21,2.35-5.81,3.55-9.89,3.55a14.36,14.36,0,0,1-3.36-.29v13h-4.18Zm4.18,15.6a14,14,0,0,0,3.46.34c5,0,8.11-2.45,8.11-6.91,0-4.28-3-6.34-7.64-6.34a17,17,0,0,0-3.93.34Z"/><rect x="1072.5" y="164.5" width="335" height="95" fill="none" stroke="#000" stroke-miterlimit="10" stroke-width="3"/><rect x="1072.5" y="259.5" width="335" height="95" fill="none" stroke="#000" stroke-miterlimit="10" stroke-width="3"/><rect x="1072.5" y="354.5" width="335" height="95" fill="none" stroke="#000" stroke-miterlimit="10" stroke-width="3"/><rect x="1072.5" y="449.5" width="335" height="95" fill="none" stroke="#000" stroke-miterlimit="10" stroke-width="3"/><rect x="1072.5" y="544.5" width="335" height="95" fill="none" stroke="#000" stroke-miterlimit="10" stroke-width="3"/><rect x="1072.5" y="639.5" width="335" height="95" fill="none" stroke="#000" stroke-miterlimit="10" stroke-width="3"/><path d="M1109.41,222.68a11.1,11.1,0,0,0,5.61,1.58c3.21,0,5.08-1.69,5.08-4.14,0-2.27-1.3-3.56-4.57-4.82-4-1.41-6.41-3.46-6.41-6.88,0-3.78,3.13-6.59,7.85-6.59a11,11,0,0,1,5.36,1.19l-.86,2.56a9.75,9.75,0,0,0-4.61-1.15c-3.31,0-4.57,2-4.57,3.63,0,2.27,1.47,3.39,4.82,4.68,4.1,1.58,6.19,3.56,6.19,7.13,0,3.74-2.77,7-8.49,7a12.45,12.45,0,0,1-6.19-1.55Z"/><path d="M1127.59,226.49V202.23H1131l7.77,12.27a68.5,68.5,0,0,1,4.36,7.89l.07,0c-.29-3.24-.36-6.19-.36-10V202.23h3v24.26h-3.17l-7.7-12.31a76.38,76.38,0,0,1-4.53-8.1l-.11,0c.18,3.06.25,6,.25,10v10.37Z"/><path d="M1103.57,294.13a36.67,36.67,0,0,1,6-.47c3.09,0,5.36.72,6.8,2a6.51,6.51,0,0,1,2.12,5.07,7.14,7.14,0,0,1-1.87,5.18c-1.65,1.77-4.35,2.67-7.41,2.67a10.75,10.75,0,0,1-2.52-.22v9.72h-3.14Zm3.14,11.7a10.44,10.44,0,0,0,2.59.25c3.78,0,6.08-1.84,6.08-5.19,0-3.2-2.27-4.75-5.72-4.75a12.64,12.64,0,0,0-3,.26Z"/><path d="M1121.61,318.1v-1.94l2.48-2.41c6-5.69,8.68-8.72,8.72-12.24,0-2.38-1.16-4.57-4.65-4.57a8,8,0,0,0-5,2l-1-2.24a10.3,10.3,0,0,1,6.62-2.37c5,0,7.16,3.45,7.16,6.8,0,4.32-3.13,7.81-8.06,12.56L1126,315.4v.07h10.51v2.63Z"/><path d="M1141.19,294.13a36.67,36.67,0,0,1,6-.47c3.09,0,5.36.72,6.8,2a6.51,6.51,0,0,1,2.12,5.07,7.14,7.14,0,0,1-1.87,5.18c-1.66,1.77-4.36,2.67-7.42,2.67a10.66,10.66,0,0,1-2.51-.22v9.72h-3.14Zm3.14,11.7a10.44,10.44,0,0,0,2.59.25c3.78,0,6.08-1.84,6.08-5.19,0-3.2-2.27-4.75-5.72-4.75a12.64,12.64,0,0,0-3,.26Z"/><path d="M1109.53,392a36.67,36.67,0,0,1,6-.47c3.09,0,5.36.72,6.8,2a6.53,6.53,0,0,1,2.12,5.08,7.16,7.16,0,0,1-1.87,5.18c-1.65,1.76-4.35,2.66-7.41,2.66a10.78,10.78,0,0,1-2.52-.21V416h-3.14Zm3.14,11.7a10.44,10.44,0,0,0,2.59.25c3.78,0,6.08-1.83,6.08-5.18,0-3.2-2.27-4.75-5.72-4.75a13.39,13.39,0,0,0-2.95.25Z"/><path d="M1128.69,416V391.71h3.42l7.77,12.28a70,70,0,0,1,4.36,7.88l.07,0c-.29-3.24-.36-6.2-.36-10V391.71h3V416h-3.17l-7.7-12.32a79.27,79.27,0,0,1-4.54-8.09l-.1,0c.18,3.06.25,6,.25,10V416Z"/><path d="M1110.57,484.53a36.67,36.67,0,0,1,6-.47c3.09,0,5.36.72,6.8,2a6.51,6.51,0,0,1,2.12,5.07,7.17,7.17,0,0,1-1.87,5.19c-1.65,1.76-4.35,2.66-7.41,2.66a10.75,10.75,0,0,1-2.52-.22v9.72h-3.14Zm3.14,11.7a10.44,10.44,0,0,0,2.59.25c3.78,0,6.08-1.84,6.08-5.18s-2.27-4.75-5.72-4.75a12.79,12.79,0,0,0-3,.25Z"/><path d="M1135.49,488.06h-.08l-4.06,2.19-.62-2.41,5.12-2.73h2.7V508.5h-3.06Z"/><path d="M1110.73,581.82a36.61,36.61,0,0,1,6-.46c3.09,0,5.36.72,6.8,2a6.54,6.54,0,0,1,2.13,5.08,7.12,7.12,0,0,1-1.88,5.18c-1.65,1.76-4.35,2.66-7.41,2.66a10.78,10.78,0,0,1-2.52-.21v9.72h-3.13Zm3.13,11.7a10.5,10.5,0,0,0,2.59.25c3.78,0,6.08-1.83,6.08-5.18s-2.26-4.75-5.72-4.75a13.39,13.39,0,0,0-3,.25Z"/><path d="M1128.76,605.8v-1.95l2.49-2.41c6-5.69,8.67-8.71,8.71-12.24,0-2.37-1.15-4.57-4.64-4.57a8,8,0,0,0-5,2l-1-2.23A10.25,10.25,0,0,1,1136,582c5,0,7.17,3.46,7.17,6.81,0,4.32-3.13,7.81-8.07,12.56l-1.87,1.73v.07h10.51v2.63Z"/><path d="M1109.49,695.56a11.14,11.14,0,0,0,5.62,1.58c3.2,0,5.07-1.69,5.07-4.14,0-2.26-1.3-3.56-4.57-4.82-4-1.4-6.41-3.46-6.41-6.88,0-3.78,3.13-6.58,7.85-6.58a10.93,10.93,0,0,1,5.36,1.19l-.86,2.55a9.68,9.68,0,0,0-4.61-1.15c-3.31,0-4.57,2-4.57,3.63,0,2.27,1.48,3.39,4.82,4.68,4.11,1.59,6.19,3.57,6.19,7.13,0,3.74-2.77,7-8.49,7a12.56,12.56,0,0,1-6.19-1.54Z"/><path d="M1127.67,675.11h3.13v11.7h.11c.65-.93,1.3-1.8,1.91-2.59l7.41-9.11h3.89l-8.78,10.3,9.46,14h-3.7l-8-11.91-2.31,2.66v9.25h-3.13Z"/><line x1="1187" y1="166" x2="1187" y2="736" fill="none" stroke="#000" stroke-miterlimit="10" stroke-width="3"/><path d="M1203.79,196.68a11.17,11.17,0,0,0,5.62,1.58c3.2,0,5.07-1.69,5.07-4.14,0-2.27-1.29-3.56-4.57-4.82-4-1.41-6.41-3.46-6.41-6.88,0-3.78,3.14-6.59,7.85-6.59a11.05,11.05,0,0,1,5.37,1.19l-.87,2.56a9.68,9.68,0,0,0-4.61-1.15c-3.31,0-4.57,2-4.57,3.63,0,2.27,1.48,3.39,4.83,4.68,4.1,1.58,6.19,3.56,6.19,7.13,0,3.74-2.77,7-8.5,7a12.48,12.48,0,0,1-6.19-1.55Z"/><path d="M1225.39,178.17a1.87,1.87,0,0,1-2,2,1.89,1.89,0,0,1-1.91-2,1.94,1.94,0,0,1,2-2A1.88,1.88,0,0,1,1225.39,178.17Zm-3.52,22.32V183.07H1225v17.42Z"/><path d="M1230.29,187.78c0-1.8,0-3.27-.15-4.71h2.78l.14,2.81h.11a6,6,0,0,1,5.47-3.21,5.14,5.14,0,0,1,4.93,3.5h.07a7.11,7.11,0,0,1,1.95-2.27,5.94,5.94,0,0,1,3.85-1.23c2.3,0,5.72,1.52,5.72,7.56v10.26h-3.09v-9.86c0-3.35-1.23-5.36-3.78-5.36a4.11,4.11,0,0,0-3.75,2.87,5.41,5.41,0,0,0-.25,1.59v10.76h-3.09V190.05c0-2.77-1.23-4.78-3.64-4.78a4.32,4.32,0,0,0-3.92,3.16,4.39,4.39,0,0,0-.26,1.55v10.51h-3.09Z"/><path d="M1260.31,188.76c0-2.24-.07-4-.14-5.69H1263l.15,3h.07a6.84,6.84,0,0,1,6.19-3.39c4.21,0,7.38,3.57,7.38,8.86,0,6.26-3.82,9.36-7.92,9.36a6.1,6.1,0,0,1-5.36-2.74h-.08v9.47h-3.13Zm3.13,4.64a7.37,7.37,0,0,0,.15,1.3,4.88,4.88,0,0,0,4.75,3.7c3.35,0,5.29-2.73,5.29-6.73,0-3.49-1.84-6.48-5.18-6.48a5.06,5.06,0,0,0-4.79,3.93,5,5,0,0,0-.22,1.29Z"/><path d="M1280.8,174.93H1284v25.56h-3.16Z"/><path d="M1291.06,192.36c.07,4.28,2.8,6,6,6a11.31,11.31,0,0,0,4.82-.9l.54,2.27a14,14,0,0,1-5.79,1.08c-5.36,0-8.57-3.53-8.57-8.78s3.1-9.4,8.17-9.4c5.69,0,7.2,5,7.2,8.21a11.26,11.26,0,0,1-.11,1.48Zm9.28-2.27c0-2-.83-5.15-4.39-5.15-3.2,0-4.61,2.95-4.86,5.15Z"/><path d="M1204.22,243.69V219.43h3.42l7.78,12.28a69.11,69.11,0,0,1,4.36,7.88l.07,0c-.29-3.24-.36-6.19-.36-10V219.43h3v24.26h-3.17l-7.7-12.31a78.33,78.33,0,0,1-4.54-8.1l-.11,0c.18,3.06.26,6,.26,10v10.37Z"/><path d="M1229.57,235.56c.07,4.28,2.81,6,6,6a11.39,11.39,0,0,0,4.83-.9l.54,2.27a14.06,14.06,0,0,1-5.8,1.08c-5.36,0-8.57-3.53-8.57-8.78s3.1-9.4,8.18-9.4c5.68,0,7.2,5,7.2,8.21a13.35,13.35,0,0,1-.11,1.48Zm9.29-2.27c0-2-.83-5.15-4.4-5.15-3.2,0-4.6,3-4.86,5.15Z"/><path d="M1249.66,221.27v5h4.53v2.41h-4.53v9.4c0,2.16.61,3.38,2.37,3.38a7,7,0,0,0,1.84-.22l.14,2.38a7.79,7.79,0,0,1-2.81.43,4.42,4.42,0,0,1-3.42-1.33c-.9-.94-1.22-2.48-1.22-4.54v-9.5h-2.7v-2.41h2.7v-4.18Z"/><path d="M1259.34,226.27l2.3,8.85c.51,1.95,1,3.75,1.3,5.55h.11c.39-1.77,1-3.64,1.54-5.51l2.85-8.89h2.66l2.7,8.71c.65,2.09,1.15,3.92,1.55,5.69h.11a51.43,51.43,0,0,1,1.33-5.65l2.48-8.75h3.14l-5.62,17.42h-2.88l-2.66-8.31a55.4,55.4,0,0,1-1.55-5.73h-.07a53.53,53.53,0,0,1-1.59,5.76l-2.8,8.28h-2.88l-5.26-17.42Z"/><path d="M1300,234.84c0,6.44-4.46,9.25-8.67,9.25-4.72,0-8.35-3.46-8.35-9,0-5.83,3.81-9.25,8.63-9.25C1296.6,225.87,1300,229.51,1300,234.84Zm-13.82.18c0,3.81,2.2,6.69,5.29,6.69s5.29-2.84,5.29-6.77c0-2.95-1.47-6.69-5.22-6.69S1286.16,231.71,1286.16,235Z"/><path d="M1304,231.71c0-2.06,0-3.82-.15-5.44h2.78l.1,3.42h.15a5.23,5.23,0,0,1,4.82-3.82,3.52,3.52,0,0,1,.9.11v3a4.85,4.85,0,0,0-1.08-.11c-2.23,0-3.81,1.69-4.25,4.07a9.06,9.06,0,0,0-.14,1.47v9.29H1304Z"/><path d="M1319,234.26h.07c.43-.61,1-1.37,1.55-2l5.11-6h3.81l-6.73,7.16,7.67,10.26h-3.85l-6-8.35-1.62,1.8v6.55h-3.13V218.13H1319Z"/><path d="M1204.49,294.47a36.61,36.61,0,0,1,6-.46c3.1,0,5.37.72,6.8,2a6.51,6.51,0,0,1,2.13,5.08,7.16,7.16,0,0,1-1.87,5.18c-1.66,1.76-4.36,2.66-7.42,2.66a10.83,10.83,0,0,1-2.52-.21v9.72h-3.13Zm3.13,11.7a10.55,10.55,0,0,0,2.59.25c3.78,0,6.09-1.83,6.09-5.18s-2.27-4.75-5.73-4.75a13.46,13.46,0,0,0-3,.25Z"/><path d="M1224.4,310.31c.07,4.29,2.81,6.05,6,6.05a11.55,11.55,0,0,0,4.83-.9l.54,2.27a14.23,14.23,0,0,1-5.8,1.08c-5.36,0-8.56-3.53-8.56-8.79s3.09-9.39,8.17-9.39c5.68,0,7.2,5,7.2,8.21a13.13,13.13,0,0,1-.11,1.47Zm9.29-2.27c0-2-.83-5.14-4.4-5.14-3.2,0-4.6,3-4.86,5.14Z"/><path d="M1242.43,310.31c.08,4.29,2.81,6.05,6,6.05a11.5,11.5,0,0,0,4.82-.9l.54,2.27a14.13,14.13,0,0,1-5.79,1.08c-5.37,0-8.57-3.53-8.57-8.79s3.1-9.39,8.17-9.39c5.69,0,7.2,5,7.2,8.21a11.08,11.08,0,0,1-.11,1.47Zm9.29-2.27c0-2-.83-5.14-4.39-5.14-3.2,0-4.61,3-4.86,5.14Z"/><path d="M1258.71,306.46c0-2,0-3.81-.15-5.43h2.77l.11,3.41h.14a5.25,5.25,0,0,1,4.83-3.81,3.52,3.52,0,0,1,.9.11v3a4.38,4.38,0,0,0-1.08-.11c-2.23,0-3.82,1.69-4.25,4.06a9.31,9.31,0,0,0-.14,1.48v9.29h-3.13Z"/><path d="M1277.64,307.54v2.34h-8.89v-2.34Z"/><path d="M1285.17,296v5h4.53v2.41h-4.53v9.39c0,2.16.61,3.39,2.37,3.39a7,7,0,0,0,1.84-.22l.14,2.38a7.79,7.79,0,0,1-2.81.43,4.42,4.42,0,0,1-3.42-1.33c-.9-.94-1.22-2.49-1.22-4.54v-9.5h-2.7V301h2.7v-4.18Z"/><path d="M1308.82,309.59c0,6.45-4.47,9.25-8.68,9.25-4.72,0-8.35-3.45-8.35-9,0-5.83,3.82-9.25,8.64-9.25C1305.43,300.63,1308.82,304.27,1308.82,309.59Zm-13.83.18c0,3.82,2.2,6.7,5.29,6.7s5.3-2.85,5.3-6.77c0-2.95-1.48-6.69-5.22-6.69S1295,306.46,1295,309.77Z"/><path d="M1320.7,307.54v2.34h-8.89v-2.34Z"/><path d="M1324.41,306.71c0-2.23-.08-4-.15-5.68h2.84l.15,3h.07a6.86,6.86,0,0,1,6.19-3.38c4.21,0,7.38,3.56,7.38,8.85,0,6.27-3.81,9.36-7.92,9.36a6.09,6.09,0,0,1-5.36-2.73h-.07v9.46h-3.13Zm3.13,4.65a7.28,7.28,0,0,0,.14,1.29,4.89,4.89,0,0,0,4.75,3.71c3.35,0,5.29-2.74,5.29-6.73,0-3.49-1.83-6.48-5.18-6.48a5.06,5.06,0,0,0-4.79,3.92,5.12,5.12,0,0,0-.21,1.3Z"/><path d="M1346.65,310.31c.08,4.29,2.81,6.05,6,6.05a11.5,11.5,0,0,0,4.82-.9l.54,2.27a14.13,14.13,0,0,1-5.79,1.08c-5.37,0-8.57-3.53-8.57-8.79s3.1-9.39,8.17-9.39c5.69,0,7.2,5,7.2,8.21a11.08,11.08,0,0,1-.11,1.47Zm9.29-2.27c0-2-.83-5.14-4.39-5.14-3.21,0-4.61,3-4.86,5.14Z"/><path d="M1364.69,310.31c.07,4.29,2.81,6.05,6,6.05a11.55,11.55,0,0,0,4.83-.9l.54,2.27a14.23,14.23,0,0,1-5.8,1.08c-5.36,0-8.56-3.53-8.56-8.79s3.09-9.39,8.17-9.39c5.68,0,7.2,5,7.2,8.21a13.13,13.13,0,0,1-.11,1.47ZM1374,308c0-2-.83-5.14-4.4-5.14-3.2,0-4.6,3-4.86,5.14Z"/><path d="M1381,306.46c0-2,0-3.81-.14-5.43h2.77l.11,3.41h.14a5.23,5.23,0,0,1,4.82-3.81,3.46,3.46,0,0,1,.9.11v3a4.27,4.27,0,0,0-1.08-.11c-2.23,0-3.81,1.69-4.24,4.06a8.22,8.22,0,0,0-.15,1.48v9.29H1381Z"/><path d="M1204.45,366.66a35.37,35.37,0,0,1,6-.47c3.1,0,5.36.72,6.8,2a6.51,6.51,0,0,1,2.13,5.08,7.16,7.16,0,0,1-1.87,5.18c-1.66,1.77-4.36,2.67-7.42,2.67a10.8,10.8,0,0,1-2.52-.22v9.72h-3.13Zm3.13,11.69a10.44,10.44,0,0,0,2.59.26c3.78,0,6.09-1.84,6.09-5.19s-2.27-4.75-5.73-4.75a13.46,13.46,0,0,0-3,.25Z"/><path d="M1222.92,378.64c0-2.05,0-3.81-.15-5.43h2.77l.11,3.42h.15a5.23,5.23,0,0,1,4.82-3.82,3.52,3.52,0,0,1,.9.11v3a4.33,4.33,0,0,0-1.08-.11c-2.23,0-3.82,1.69-4.25,4.07a9.06,9.06,0,0,0-.14,1.47v9.29h-3.13Z"/><path d="M1238.36,368.31a1.86,1.86,0,0,1-2,1.94,1.88,1.88,0,0,1-1.91-1.94,1.94,1.94,0,0,1,2-2A1.88,1.88,0,0,1,1238.36,368.31Zm-3.53,22.32V373.21H1238v17.42Z"/><path d="M1244.48,373.21l3.42,9.79a41,41,0,0,1,1.4,4.46h.11c.4-1.44.9-2.88,1.48-4.46l3.38-9.79h3.31l-6.84,17.42h-3l-6.62-17.42Z"/><path d="M1270.08,390.63l-.26-2.2h-.11a6.47,6.47,0,0,1-5.32,2.59,5,5,0,0,1-5.33-5c0-4.21,3.74-6.51,10.48-6.48v-.36c0-1.44-.4-4-4-4a8.61,8.61,0,0,0-4.54,1.3l-.72-2.09a10.78,10.78,0,0,1,5.72-1.55c5.33,0,6.63,3.64,6.63,7.13v6.51a24.19,24.19,0,0,0,.29,4.18Zm-.47-8.89c-3.46-.07-7.38.54-7.38,3.92a2.8,2.8,0,0,0,3,3,4.35,4.35,0,0,0,4.21-2.91,3.26,3.26,0,0,0,.18-1Z"/><path d="M1281.45,368.2v5H1286v2.41h-4.54V385c0,2.16.61,3.39,2.38,3.39a6.83,6.83,0,0,0,1.83-.22l.15,2.38a7.83,7.83,0,0,1-2.81.43,4.4,4.4,0,0,1-3.42-1.33c-.9-.94-1.22-2.49-1.22-4.54v-9.5h-2.7v-2.41h2.7V369Z"/><path d="M1291.1,382.49c.07,4.29,2.81,6.05,6,6.05a11.53,11.53,0,0,0,4.82-.9l.54,2.27a14.19,14.19,0,0,1-5.8,1.08c-5.36,0-8.56-3.53-8.56-8.78s3.09-9.4,8.17-9.4c5.69,0,7.2,5,7.2,8.21a10.93,10.93,0,0,1-.11,1.47Zm9.29-2.26c0-2-.83-5.15-4.39-5.15-3.21,0-4.61,2.95-4.86,5.15Z"/><path d="M1204.45,433.83V409.57h3.42l7.77,12.27a68.5,68.5,0,0,1,4.36,7.89l.07,0c-.29-3.24-.36-6.19-.36-10V409.57h3v24.26h-3.16l-7.71-12.31a76.38,76.38,0,0,1-4.53-8.1l-.11,0c.18,3.05.25,6,.25,10v10.37Z"/><path d="M1229.79,425.69c.08,4.29,2.81,6.05,6,6.05a11.5,11.5,0,0,0,4.82-.9l.54,2.27a14.13,14.13,0,0,1-5.79,1.08c-5.37,0-8.57-3.53-8.57-8.78s3.1-9.4,8.17-9.4c5.69,0,7.2,5,7.2,8.21a10.93,10.93,0,0,1-.11,1.47Zm9.29-2.26c0-2-.83-5.15-4.39-5.15-3.21,0-4.61,3-4.86,5.15Z"/><path d="M1249.88,411.4v5h4.54v2.41h-4.54v9.39c0,2.16.61,3.39,2.38,3.39a6.89,6.89,0,0,0,1.83-.22l.15,2.38a7.87,7.87,0,0,1-2.81.43,4.39,4.39,0,0,1-3.42-1.33c-.9-.94-1.22-2.49-1.22-4.54v-9.5h-2.71v-2.41h2.71v-4.18Z"/><path d="M1259.56,416.41l2.31,8.85c.5,1.95,1,3.75,1.29,5.55h.11c.4-1.77,1-3.64,1.55-5.51l2.84-8.89h2.67l2.7,8.71c.64,2.09,1.15,3.92,1.54,5.69h.11a54.57,54.57,0,0,1,1.33-5.66l2.49-8.74h3.13L1276,433.83h-2.88l-2.66-8.32c-.61-1.94-1.11-3.67-1.55-5.72h-.07a51.32,51.32,0,0,1-1.58,5.76l-2.81,8.28h-2.88l-5.26-17.42Z"/><path d="M1300.21,425c0,6.45-4.47,9.25-8.68,9.25-4.71,0-8.35-3.45-8.35-9,0-5.83,3.82-9.25,8.64-9.25C1296.82,416,1300.21,419.65,1300.21,425Zm-13.83.18c0,3.82,2.2,6.7,5.29,6.7s5.3-2.84,5.3-6.77c0-2.95-1.48-6.69-5.22-6.69S1286.38,421.84,1286.38,425.15Z"/><path d="M1304.2,421.84c0-2,0-3.81-.14-5.43h2.77l.11,3.42h.14a5.24,5.24,0,0,1,4.83-3.82,3.52,3.52,0,0,1,.9.11v3a4.38,4.38,0,0,0-1.08-.11c-2.23,0-3.82,1.69-4.25,4.07a9.06,9.06,0,0,0-.14,1.47v9.29h-3.14Z"/><path d="M1319.25,424.4h.07c.44-.61,1-1.37,1.55-2l5.11-6h3.82l-6.73,7.16,7.66,10.26h-3.85l-6-8.35-1.62,1.8v6.55h-3.13V408.27h3.13Z"/><path d="M1204.14,484.22a36.44,36.44,0,0,1,6-.47c3.1,0,5.37.73,6.81,2a6.53,6.53,0,0,1,2.12,5.08,7.16,7.16,0,0,1-1.87,5.18c-1.66,1.76-4.36,2.66-7.42,2.66a10.83,10.83,0,0,1-2.52-.21v9.72h-3.13Zm3.13,11.7a10.58,10.58,0,0,0,2.6.25c3.78,0,6.08-1.83,6.08-5.18s-2.27-4.75-5.72-4.75a13.5,13.5,0,0,0-3,.25Z"/><path d="M1224.05,500.06c.07,4.28,2.81,6.05,6,6.05a11.53,11.53,0,0,0,4.82-.9l.54,2.27a14.19,14.19,0,0,1-5.8,1.08c-5.36,0-8.56-3.53-8.56-8.79s3.09-9.39,8.17-9.39c5.69,0,7.2,5,7.2,8.21a11.08,11.08,0,0,1-.11,1.47Zm9.29-2.27c0-2-.83-5.14-4.39-5.14-3.21,0-4.61,3-4.86,5.14Z"/><path d="M1242.09,500.06c.07,4.28,2.8,6.05,6,6.05a11.55,11.55,0,0,0,4.83-.9l.54,2.27a14.23,14.23,0,0,1-5.8,1.08c-5.36,0-8.57-3.53-8.57-8.79s3.1-9.39,8.17-9.39c5.69,0,7.2,5,7.2,8.21a13.66,13.66,0,0,1-.1,1.47Zm9.28-2.27c0-2-.82-5.14-4.39-5.14-3.2,0-4.6,3-4.86,5.14Z"/><path d="M1258.36,496.21c0-2,0-3.82-.15-5.44H1261l.1,3.42h.15a5.22,5.22,0,0,1,4.82-3.81,3.13,3.13,0,0,1,.9.11v3a4.9,4.9,0,0,0-1.08-.1c-2.23,0-3.81,1.69-4.25,4.06a9.31,9.31,0,0,0-.14,1.48v9.29h-3.13Z"/><path d="M1283.63,487.75h-.07l-4.07,2.2-.61-2.41,5.11-2.74h2.7v23.4h-3.06Z"/><path d="M1204.84,582.06a36.44,36.44,0,0,1,6-.47c3.09,0,5.36.72,6.8,2a6.52,6.52,0,0,1,2.13,5.07,7.11,7.11,0,0,1-1.88,5.18c-1.65,1.77-4.35,2.67-7.41,2.67a10.75,10.75,0,0,1-2.52-.22V606h-3.13Zm3.13,11.7a10.5,10.5,0,0,0,2.59.25c3.78,0,6.08-1.84,6.08-5.19s-2.26-4.75-5.72-4.75a12.64,12.64,0,0,0-3,.26Z"/><path d="M1224.75,597.9c.07,4.28,2.8,6,6,6a11.31,11.31,0,0,0,4.82-.9l.54,2.27a14.13,14.13,0,0,1-5.79,1.08c-5.37,0-8.57-3.53-8.57-8.78s3.1-9.4,8.17-9.4c5.69,0,7.2,5,7.2,8.21a11.26,11.26,0,0,1-.11,1.48Zm9.28-2.27c0-2-.83-5.15-4.39-5.15-3.2,0-4.61,2.95-4.86,5.15Z"/><path d="M1242.78,597.9c.07,4.28,2.81,6,6,6a11.38,11.38,0,0,0,4.82-.9l.54,2.27a14.19,14.19,0,0,1-5.8,1.08c-5.36,0-8.56-3.53-8.56-8.78s3.09-9.4,8.17-9.4c5.69,0,7.2,5,7.2,8.21a11.26,11.26,0,0,1-.11,1.48Zm9.29-2.27c0-2-.83-5.15-4.39-5.15-3.21,0-4.61,2.95-4.86,5.15Z"/><path d="M1259.05,594c0-2,0-3.81-.14-5.43h2.77l.11,3.42h.14a5.23,5.23,0,0,1,4.83-3.82,3.52,3.52,0,0,1,.9.11v3a4.92,4.92,0,0,0-1.08-.11c-2.24,0-3.82,1.69-4.25,4.07a9,9,0,0,0-.15,1.47V606h-3.13Z"/><path d="M1277.45,606v-1.94l2.48-2.42c6-5.68,8.68-8.71,8.71-12.23,0-2.38-1.15-4.57-4.64-4.57a8,8,0,0,0-5,2l-1-2.23a10.33,10.33,0,0,1,6.63-2.37c5,0,7.16,3.45,7.16,6.8,0,4.32-3.13,7.81-8.06,12.56l-1.87,1.73v.07h10.51V606Z"/><path d="M1204.1,695.82a11,11,0,0,0,5.61,1.59c3.21,0,5.08-1.69,5.08-4.14,0-2.27-1.3-3.56-4.57-4.82-4-1.41-6.41-3.46-6.41-6.88,0-3.78,3.13-6.59,7.85-6.59a11,11,0,0,1,5.36,1.19l-.86,2.56a9.54,9.54,0,0,0-4.61-1.16c-3.31,0-4.57,2-4.57,3.64,0,2.27,1.47,3.38,4.82,4.68,4.11,1.58,6.19,3.56,6.19,7.13,0,3.74-2.77,7-8.49,7a12.45,12.45,0,0,1-6.19-1.55Z"/><path d="M1223.14,682.22l2.31,8.85c.5,1.95,1,3.75,1.29,5.55h.11c.4-1.77,1-3.64,1.55-5.51l2.84-8.89h2.67l2.69,8.71c.65,2.09,1.16,3.92,1.55,5.69h.11a54.57,54.57,0,0,1,1.33-5.66l2.49-8.74h3.13l-5.62,17.42h-2.88l-2.66-8.32a57.85,57.85,0,0,1-1.55-5.72h-.07a51.32,51.32,0,0,1-1.58,5.76l-2.81,8.28h-2.88l-5.26-17.42Z"/><path d="M1257.88,699.64l-.25-2.2h-.11a6.48,6.48,0,0,1-5.33,2.6,5,5,0,0,1-5.32-5c0-4.21,3.74-6.51,10.47-6.48v-.36c0-1.44-.39-4-4-4a8.67,8.67,0,0,0-4.53,1.3l-.72-2.09a10.75,10.75,0,0,1,5.72-1.55c5.33,0,6.62,3.64,6.62,7.13v6.51a24.12,24.12,0,0,0,.29,4.18Zm-.47-8.89c-3.45-.07-7.38.54-7.38,3.92a2.81,2.81,0,0,0,3,3,4.32,4.32,0,0,0,4.21-2.92,3.21,3.21,0,0,0,.18-1Z"/><path d="M1265.59,687.65c0-2,0-3.81-.15-5.43h2.77l.11,3.42h.15a5.23,5.23,0,0,1,4.82-3.82,3.52,3.52,0,0,1,.9.11v3a4.85,4.85,0,0,0-1.08-.11c-2.23,0-3.82,1.69-4.25,4.07a9.06,9.06,0,0,0-.14,1.47v9.29h-3.13Z"/><path d="M1277.5,686.93c0-1.8,0-3.27-.14-4.71h2.77l.14,2.81h.11a6,6,0,0,1,5.47-3.21,5.14,5.14,0,0,1,4.93,3.49h.08a7.16,7.16,0,0,1,1.94-2.26,5.9,5.9,0,0,1,3.85-1.23c2.31,0,5.73,1.51,5.73,7.56v10.26h-3.1v-9.86c0-3.35-1.23-5.37-3.78-5.37a4.11,4.11,0,0,0-3.74,2.88,5.09,5.09,0,0,0-.26,1.59v10.76h-3.09V689.2c0-2.77-1.23-4.79-3.64-4.79a4.33,4.33,0,0,0-3.92,3.17,4.38,4.38,0,0,0-.25,1.55v10.51h-3.1Z"/><path d="M1315.27,675.38h3.13v11.7h.11c.64-.94,1.29-1.8,1.9-2.59l7.42-9.11h3.89l-8.79,10.29,9.47,14h-3.71l-8-11.91-2.3,2.66v9.25h-3.13Z"/><path d="M1336.43,691.5c.08,4.29,2.81,6,6,6a11.34,11.34,0,0,0,4.82-.9l.54,2.27A14.13,14.13,0,0,1,1342,700c-5.37,0-8.57-3.53-8.57-8.78s3.1-9.4,8.17-9.4c5.69,0,7.2,5,7.2,8.21a10.93,10.93,0,0,1-.11,1.47Zm9.29-2.26c0-2-.83-5.15-4.39-5.15-3.21,0-4.61,2.95-4.86,5.15Z"/><path d="M1353.86,682.22l3.81,10.29c.4,1.15.83,2.52,1.12,3.57h.07c.32-1.05.68-2.38,1.12-3.64l3.45-10.22h3.35L1362,694.64c-2.27,6-3.82,9-6,10.9a8.52,8.52,0,0,1-3.88,2.05l-.8-2.66a8.25,8.25,0,0,0,2.77-1.55,9.48,9.48,0,0,0,2.67-3.52,2.42,2.42,0,0,0,.25-.76,2.66,2.66,0,0,0-.22-.83l-6.44-16Z"/></svg>