<svg id="Layer_1" data-name="Layer 1" xmlns="http://www.w3.org/2000/svg" viewBox="0 0 1440 900"><title>Artboard 1</title><rect x="39.5" y="101.5" width="997" height="697" rx="48.5" ry="48.5" fill="#fff"/><path d="M988,103a47,47,0,0,1,47,47V750a47,47,0,0,1-47,47H88a47,47,0,0,1-47-47V150a47,47,0,0,1,47-47H988m0-3H88a50.15,50.15,0,0,0-50,50V750a50.15,50.15,0,0,0,50,50H988a50.15,50.15,0,0,0,50-50V150a50.15,50.15,0,0,0-50-50Z"/><path d="M86.55,175.47A14.75,14.75,0,0,0,94,177.59c4.28,0,6.77-2.26,6.77-5.52,0-3-1.73-4.76-6.09-6.44-5.28-1.87-8.55-4.6-8.55-9.17,0-5,4.18-8.78,10.47-8.78a14.77,14.77,0,0,1,7.15,1.58l-1.15,3.41a13,13,0,0,0-6.15-1.53c-4.41,0-6.09,2.64-6.09,4.84,0,3,2,4.52,6.43,6.25,5.47,2.11,8.25,4.75,8.25,9.5,0,5-3.69,9.31-11.32,9.31A16.76,16.76,0,0,1,85.5,179Z"/><path d="M110.79,180.56V148.21h4.56l10.37,16.37a90.69,90.69,0,0,1,5.81,10.51l.1-.05c-.39-4.32-.48-8.25-.48-13.29V148.21h3.93v32.35h-4.22l-10.27-16.41a101.17,101.17,0,0,1-6-10.81l-.14,0c.24,4.08.33,8,.33,13.35v13.82Z"/><circle cx="148" cy="532" r="65.5" fill="#fff"/><path d="M148,468a64,64,0,1,1-64,64,64.07,64.07,0,0,1,64-64m0-3a67,67,0,1,0,67,67,67,67,0,0,0-67-67Z"/><circle cx="527" cy="532" r="65.5" fill="#fff"/><path d="M527,468a64,64,0,1,1-64,64,64.07,64.07,0,0,1,64-64m0-3a67,67,0,1,0,67,67,67,67,0,0,0-67-67Z"/><path d="M125.78,518.23a47.9,47.9,0,0,1,8-.62c4.13,0,7.16,1,9.08,2.68a8.73,8.73,0,0,1,2.83,6.77,9.48,9.48,0,0,1-2.5,6.91c-2.2,2.36-5.81,3.56-9.89,3.56a14.41,14.41,0,0,1-3.36-.29v13h-4.17Zm4.17,15.6a14.07,14.07,0,0,0,3.46.34c5,0,8.11-2.45,8.11-6.92,0-4.27-3-6.33-7.63-6.33a17.81,17.81,0,0,0-3.94.33Z"/><path d="M159,522.93h-.09l-5.43,2.93-.81-3.21,6.81-3.65h3.6v31.2H159Z"/><path d="M506,544.81a14.79,14.79,0,0,0,7.49,2.11c4.27,0,6.76-2.26,6.76-5.52,0-3-1.72-4.76-6.09-6.44-5.28-1.87-8.55-4.6-8.55-9.16,0-5,4.18-8.79,10.47-8.79a14.64,14.64,0,0,1,7.15,1.59l-1.15,3.4a13,13,0,0,0-6.15-1.53c-4.41,0-6.09,2.64-6.09,4.85,0,3,2,4.51,6.43,6.24,5.47,2.11,8.26,4.75,8.26,9.5,0,5-3.7,9.31-11.33,9.31a16.76,16.76,0,0,1-8.26-2.06Z"/><path d="M537.89,522.63h-.1l-5.42,2.93-.82-3.22,6.82-3.65H542v31.2h-4.08Z"/><path d="M354.5,322.5c-72.44,0-140.53-4.88-191.72-13.74C113,300.14,84.5,288.57,84.5,277s28.53-23.14,78.28-31.76C214,236.38,282.06,231.5,354.5,231.5S495,236.38,546.22,245.24C596,253.86,624.5,265.43,624.5,277S596,300.14,546.22,308.76C495,317.62,426.94,322.5,354.5,322.5Z" fill="#fff"/><path d="M354.5,233c72.35,0,140.35,4.87,191.47,13.72,24.72,4.28,44.08,9.25,57.56,14.76C616.08,266.62,623,272.13,623,277s-6.92,10.38-19.47,15.52C590.05,298,570.69,303,546,307.28,494.85,316.13,426.85,321,354.5,321S214.15,316.13,163,307.28C138.31,303,119,298,105.47,292.52,92.92,287.38,86,281.87,86,277s6.92-10.38,19.47-15.52C119,256,138.31,251,163,246.72,214.15,237.87,282.15,233,354.5,233m0-3C204.55,230,83,251,83,277s121.55,47,271.5,47S626,303,626,277s-121.55-47-271.5-47Z"/><path d="M326.14,261.11a49.23,49.23,0,0,1,8-.62c4.13,0,7.15,1,9.07,2.69a8.66,8.66,0,0,1,2.83,6.76,9.55,9.55,0,0,1-2.49,6.92c-2.21,2.35-5.81,3.55-9.89,3.55a14.36,14.36,0,0,1-3.36-.29v13h-4.18Zm4.18,15.6a14,14,0,0,0,3.46.34c5,0,8.11-2.45,8.11-6.91,0-4.28-3-6.34-7.63-6.34a17,17,0,0,0-3.94.34Z"/><path d="M351.68,293.08V260.73h4.56l10.37,16.37a92.22,92.22,0,0,1,5.81,10.51l.09-.05c-.38-4.32-.48-8.26-.48-13.3V260.73H376v32.35h-4.22l-10.28-16.42a104.67,104.67,0,0,1-6.05-10.8l-.14.05c.24,4.08.34,8,.34,13.35v13.82Z"/><rect x="84.5" y="590.5" width="128" height="76" fill="#fff"/><path d="M211,592v73H86V592H211m3-3H83v79H214V589Z"/><rect x="463.5" y="590.5" width="128" height="76" fill="#fff"/><path d="M590,592v73H465V592H590m3-3H462v79H593V589Z"/><path d="M123.45,639.9a14.82,14.82,0,0,0,7.49,2.11c4.27,0,6.77-2.25,6.77-5.52,0-3-1.73-4.75-6.1-6.43-5.28-1.87-8.55-4.61-8.55-9.17,0-5,4.18-8.78,10.47-8.78a14.77,14.77,0,0,1,7.15,1.58l-1.15,3.41a12.85,12.85,0,0,0-6.14-1.54c-4.42,0-6.1,2.64-6.1,4.85,0,3,2,4.51,6.43,6.24,5.47,2.11,8.26,4.76,8.26,9.51,0,5-3.7,9.31-11.33,9.31a16.76,16.76,0,0,1-8.26-2.06Z"/><path d="M147.69,612.64h4.17v15.6H152c.86-1.25,1.73-2.4,2.54-3.46l9.89-12.14h5.19l-11.72,13.72L170.54,645h-4.95L154.94,629.1l-3.08,3.55V645h-4.17Z"/><path d="M501,639.86a14.82,14.82,0,0,0,7.49,2.11c4.27,0,6.77-2.25,6.77-5.52,0-3-1.73-4.75-6.1-6.43-5.28-1.87-8.55-4.61-8.55-9.17,0-5,4.18-8.78,10.47-8.78a14.66,14.66,0,0,1,7.15,1.58L517,617.06a12.87,12.87,0,0,0-6.15-1.54c-4.41,0-6.09,2.64-6.09,4.85,0,3,2,4.51,6.43,6.24,5.47,2.11,8.26,4.75,8.26,9.51,0,5-3.7,9.31-11.33,9.31a16.76,16.76,0,0,1-8.26-2.06Z"/><path d="M525.19,612.59h4.17V628.2h.15c.86-1.25,1.73-2.4,2.54-3.46l9.89-12.15h5.19l-11.72,13.73L548,645h-4.95l-10.65-15.89-3.08,3.55V645h-4.17Z"/><path d="M894.41,718.87a49.23,49.23,0,0,1,8-.62c4.13,0,7.15,1,9.07,2.69a8.66,8.66,0,0,1,2.83,6.77,9.54,9.54,0,0,1-2.49,6.91c-2.21,2.35-5.81,3.55-9.89,3.55a14.36,14.36,0,0,1-3.36-.29v13h-4.18Zm4.18,15.6a14,14,0,0,0,3.46.34c5,0,8.11-2.45,8.11-6.91,0-4.28-3-6.34-7.63-6.34a17,17,0,0,0-3.94.34Z"/><path d="M918.46,750.84v-2.59l3.31-3.22c8-7.58,11.57-11.61,11.62-16.32,0-3.17-1.54-6.09-6.19-6.09a10.65,10.65,0,0,0-6.63,2.64l-1.34-3a13.71,13.71,0,0,1,8.83-3.17c6.72,0,9.55,4.61,9.55,9.07,0,5.77-4.17,10.42-10.75,16.76l-2.49,2.3v.1h14v3.5Z"/><path d="M944,745.75a14.69,14.69,0,0,0,7.48,2.12c4.28,0,6.77-2.26,6.77-5.52,0-3-1.72-4.76-6.09-6.44-5.28-1.87-8.55-4.61-8.55-9.16,0-5,4.18-8.79,10.47-8.79a14.77,14.77,0,0,1,7.15,1.58L960.08,723a13,13,0,0,0-6.15-1.53c-4.41,0-6.09,2.64-6.09,4.84,0,3,2,4.52,6.43,6.24,5.47,2.12,8.26,4.76,8.26,9.51,0,5-3.7,9.31-11.33,9.31a16.76,16.76,0,0,1-8.26-2.06Z"/><path d="M968.24,718.87a49,49,0,0,1,8-.62c4.13,0,7.16,1,9.08,2.69a8.7,8.7,0,0,1,2.83,6.77,9.54,9.54,0,0,1-2.5,6.91c-2.21,2.35-5.81,3.55-9.89,3.55a14.36,14.36,0,0,1-3.36-.29v13h-4.17Zm4.17,15.6a14,14,0,0,0,3.46.34c5,0,8.11-2.45,8.11-6.91,0-4.28-3-6.34-7.63-6.34a17,17,0,0,0-3.94.34Z"/><rect x="1071.5" y="73.5" width="351.5" height="95" fill="none" stroke="#000" stroke-miterlimit="10" stroke-width="3"/><rect x="1071.5" y="168.5" width="351.5" height="95" fill="none" stroke="#000" stroke-miterlimit="10" stroke-width="3"/><rect x="1071.5" y="263.5" width="351.5" height="95" fill="none" stroke="#000" stroke-miterlimit="10" stroke-width="3"/><rect x="1071.5" y="358.5" width="351.5" height="95" fill="none" stroke="#000" stroke-miterlimit="10" stroke-width="3"/><rect x="1071.5" y="548.5" width="351.5" height="95" fill="none" stroke="#000" stroke-miterlimit="10" stroke-width="3"/><rect x="1071.5" y="643.5" width="351.5" height="95" fill="none" stroke="#000" stroke-miterlimit="10" stroke-width="3"/><path d="M1108.41,131.68a11.1,11.1,0,0,0,5.61,1.58c3.21,0,5.08-1.69,5.08-4.14,0-2.27-1.3-3.56-4.57-4.82-4-1.41-6.41-3.46-6.41-6.88,0-3.78,3.13-6.59,7.85-6.59a11,11,0,0,1,5.36,1.19l-.86,2.56a9.75,9.75,0,0,0-4.61-1.15c-3.31,0-4.57,2-4.57,3.63,0,2.27,1.47,3.39,4.82,4.68,4.1,1.58,6.19,3.56,6.19,7.13,0,3.74-2.77,7-8.49,7a12.45,12.45,0,0,1-6.19-1.55Z"/><path d="M1126.59,135.49V111.23H1130l7.77,12.27a68.5,68.5,0,0,1,4.36,7.89l.07,0c-.29-3.24-.36-6.19-.36-10V111.23h3v24.26h-3.17l-7.7-12.31a76.38,76.38,0,0,1-4.53-8.1l-.11,0c.18,3.06.25,6,.25,10v10.37Z"/><path d="M1093.57,203.13a36.67,36.67,0,0,1,6-.47c3.09,0,5.36.72,6.8,2a6.51,6.51,0,0,1,2.12,5.07,7.14,7.14,0,0,1-1.87,5.18c-1.65,1.77-4.35,2.67-7.41,2.67a10.75,10.75,0,0,1-2.52-.22v9.72h-3.14Zm3.14,11.7a10.44,10.44,0,0,0,2.59.25c3.78,0,6.08-1.84,6.08-5.19,0-3.2-2.27-4.75-5.72-4.75a12.64,12.64,0,0,0-3,.26Z"/><path d="M1111.61,227.1v-1.94l2.48-2.41c6-5.69,8.68-8.72,8.72-12.24,0-2.38-1.16-4.57-4.65-4.57a8,8,0,0,0-5,2l-1-2.24a10.3,10.3,0,0,1,6.62-2.37c5,0,7.16,3.45,7.16,6.8,0,4.32-3.13,7.81-8.06,12.56L1116,224.4v.07h10.51v2.63Z"/><path d="M1130.76,223.29a11.17,11.17,0,0,0,5.62,1.58c3.2,0,5.07-1.69,5.07-4.14,0-2.27-1.29-3.56-4.57-4.82-4-1.41-6.41-3.46-6.41-6.88,0-3.78,3.14-6.59,7.85-6.59a11,11,0,0,1,5.36,1.19l-.86,2.56a9.68,9.68,0,0,0-4.61-1.15c-3.31,0-4.57,2-4.57,3.63,0,2.27,1.48,3.38,4.82,4.68,4.11,1.58,6.2,3.56,6.2,7.13,0,3.74-2.78,7-8.5,7a12.48,12.48,0,0,1-6.19-1.55Z"/><path d="M1148.94,203.13a36.44,36.44,0,0,1,6-.47c3.1,0,5.37.72,6.81,2a6.51,6.51,0,0,1,2.12,5.07,7.14,7.14,0,0,1-1.87,5.18c-1.66,1.77-4.36,2.67-7.42,2.67a10.8,10.8,0,0,1-2.52-.22v9.72h-3.13Zm3.13,11.7a10.58,10.58,0,0,0,2.6.25c3.77,0,6.08-1.84,6.08-5.19,0-3.2-2.27-4.75-5.72-4.75a12.74,12.74,0,0,0-3,.26Z"/><path d="M1108.53,301a36.67,36.67,0,0,1,6-.47c3.09,0,5.36.72,6.8,2a6.53,6.53,0,0,1,2.12,5.08,7.16,7.16,0,0,1-1.87,5.18c-1.65,1.76-4.35,2.66-7.41,2.66a10.78,10.78,0,0,1-2.52-.21V325h-3.14Zm3.14,11.7a10.44,10.44,0,0,0,2.59.25c3.78,0,6.08-1.83,6.08-5.18,0-3.2-2.27-4.75-5.72-4.75a13.39,13.39,0,0,0-2.95.25Z"/><path d="M1127.69,325V300.71h3.42l7.77,12.28a70,70,0,0,1,4.36,7.88l.07,0c-.29-3.24-.36-6.2-.36-10V300.71h3V325h-3.17l-7.7-12.32a79.27,79.27,0,0,1-4.54-8.09l-.1,0c.18,3.06.25,6,.25,10V325Z"/><path d="M1109.57,393.53a36.67,36.67,0,0,1,6-.47c3.09,0,5.36.72,6.8,2a6.51,6.51,0,0,1,2.12,5.07,7.17,7.17,0,0,1-1.87,5.19c-1.65,1.76-4.35,2.66-7.41,2.66a10.75,10.75,0,0,1-2.52-.22v9.72h-3.14Zm3.14,11.7a10.44,10.44,0,0,0,2.59.25c3.78,0,6.08-1.84,6.08-5.18s-2.27-4.75-5.72-4.75a12.79,12.79,0,0,0-3,.25Z"/><path d="M1134.49,397.06h-.08l-4.06,2.19-.62-2.41,5.12-2.73h2.7V417.5h-3.06Z"/><path d="M1109.3,603a11,11,0,0,0,5.61,1.59c3.21,0,5.08-1.7,5.08-4.14,0-2.27-1.3-3.57-4.57-4.83-4-1.4-6.41-3.45-6.41-6.87,0-3.78,3.13-6.59,7.84-6.59a11.05,11.05,0,0,1,5.37,1.19l-.87,2.55a9.67,9.67,0,0,0-4.6-1.15c-3.31,0-4.57,2-4.57,3.64,0,2.26,1.47,3.38,4.82,4.68,4.1,1.58,6.19,3.56,6.19,7.12,0,3.75-2.77,7-8.49,7a12.63,12.63,0,0,1-6.2-1.55Z"/><path d="M1133.24,586.35h-.08l-4.06,2.2-.62-2.41,5.11-2.74h2.7v23.4h-3Z"/><path d="M1108.49,791.56a11.14,11.14,0,0,0,5.62,1.58c3.2,0,5.07-1.69,5.07-4.14,0-2.26-1.3-3.56-4.57-4.82-4-1.4-6.41-3.46-6.41-6.88,0-3.78,3.13-6.58,7.85-6.58a10.93,10.93,0,0,1,5.36,1.19l-.86,2.55a9.68,9.68,0,0,0-4.61-1.15c-3.31,0-4.57,2-4.57,3.63,0,2.27,1.48,3.39,4.82,4.68,4.11,1.59,6.19,3.57,6.19,7.13,0,3.74-2.77,7-8.49,7a12.56,12.56,0,0,1-6.19-1.54Z"/><path d="M1126.67,771.11h3.13v11.7h.11c.65-.93,1.3-1.8,1.91-2.59l7.41-9.11h3.89l-8.78,10.3,9.46,14h-3.7l-8-11.91-2.31,2.66v9.25h-3.13Z"/><line x1="1186" y1="75" x2="1186.5" y2="833.5" fill="none" stroke="#000" stroke-miterlimit="10" stroke-width="3"/><path d="M1201.29,106.18a11.17,11.17,0,0,0,5.62,1.58c3.2,0,5.07-1.69,5.07-4.14,0-2.27-1.29-3.56-4.57-4.82-4-1.41-6.41-3.46-6.41-6.88,0-3.78,3.14-6.59,7.85-6.59a11.05,11.05,0,0,1,5.37,1.19l-.87,2.56a9.68,9.68,0,0,0-4.61-1.15c-3.31,0-4.57,2-4.57,3.63,0,2.27,1.48,3.39,4.83,4.68,4.1,1.58,6.19,3.56,6.19,7.13,0,3.74-2.77,7-8.5,7a12.48,12.48,0,0,1-6.19-1.55Z"/><path d="M1222.89,87.67a1.87,1.87,0,0,1-2,2,1.89,1.89,0,0,1-1.91-2,1.94,1.94,0,0,1,2-2A1.88,1.88,0,0,1,1222.89,87.67ZM1219.37,110V92.57h3.16V110Z"/><path d="M1227.79,97.28c0-1.8,0-3.27-.15-4.71h2.78l.14,2.81h.11a6,6,0,0,1,5.47-3.21,5.14,5.14,0,0,1,4.93,3.5h.07a7.11,7.11,0,0,1,1.95-2.27,5.94,5.94,0,0,1,3.85-1.23c2.3,0,5.72,1.52,5.72,7.56V110h-3.09v-9.86c0-3.35-1.23-5.36-3.78-5.36a4.11,4.11,0,0,0-3.75,2.87,5.41,5.41,0,0,0-.25,1.59V110h-3.09V99.55c0-2.77-1.23-4.78-3.64-4.78a4.32,4.32,0,0,0-3.92,3.16,4.39,4.39,0,0,0-.26,1.55V110h-3.09Z"/><path d="M1257.81,98.26c0-2.24-.07-4-.14-5.69h2.84l.15,3h.07a6.84,6.84,0,0,1,6.19-3.39c4.21,0,7.38,3.57,7.38,8.86,0,6.26-3.82,9.36-7.92,9.36a6.1,6.1,0,0,1-5.36-2.74h-.08v9.47h-3.13Zm3.13,4.64a7.37,7.37,0,0,0,.15,1.3,4.88,4.88,0,0,0,4.75,3.7c3.35,0,5.29-2.73,5.29-6.73,0-3.49-1.84-6.48-5.18-6.48a5.06,5.06,0,0,0-4.79,3.93,5,5,0,0,0-.22,1.29Z"/><path d="M1278.3,84.43h3.16V110h-3.16Z"/><path d="M1288.56,101.86c.07,4.28,2.8,6,6,6a11.31,11.31,0,0,0,4.82-.9l.54,2.27a14,14,0,0,1-5.79,1.08c-5.36,0-8.57-3.53-8.57-8.78s3.1-9.4,8.17-9.4c5.69,0,7.2,5,7.2,8.21a11.26,11.26,0,0,1-.11,1.48Zm9.28-2.27c0-2-.83-5.15-4.39-5.15-3.2,0-4.61,3-4.86,5.15Z"/><path d="M1201.72,153.19V128.93h3.42l7.78,12.28a69.11,69.11,0,0,1,4.36,7.88l.07,0c-.29-3.24-.36-6.19-.36-10V128.93h3v24.26h-3.17l-7.7-12.31a78.33,78.33,0,0,1-4.54-8.1l-.11,0c.18,3.06.26,6,.26,10v10.37Z"/><path d="M1227.07,145.06c.07,4.28,2.81,6,6,6a11.39,11.39,0,0,0,4.83-.9l.54,2.27a14.06,14.06,0,0,1-5.8,1.08c-5.36,0-8.57-3.53-8.57-8.78s3.1-9.4,8.18-9.4c5.68,0,7.2,5,7.2,8.21a13.35,13.35,0,0,1-.11,1.48Zm9.29-2.27c0-2-.83-5.15-4.4-5.15-3.2,0-4.6,3-4.86,5.15Z"/><path d="M1247.16,130.77v5h4.53v2.41h-4.53v9.4c0,2.16.61,3.38,2.37,3.38a7,7,0,0,0,1.84-.22l.14,2.38a7.79,7.79,0,0,1-2.81.43,4.42,4.42,0,0,1-3.42-1.33c-.9-.94-1.22-2.48-1.22-4.54v-9.5h-2.7v-2.41h2.7v-4.18Z"/><path d="M1256.84,135.77l2.3,8.85c.51,1.95,1,3.75,1.3,5.55h.11c.39-1.77,1-3.64,1.54-5.51l2.85-8.89h2.66l2.7,8.71c.65,2.09,1.15,3.92,1.55,5.69h.11a51.43,51.43,0,0,1,1.33-5.65l2.48-8.75h3.14l-5.62,17.42h-2.88l-2.66-8.31a55.4,55.4,0,0,1-1.55-5.73h-.07a53.53,53.53,0,0,1-1.59,5.76l-2.8,8.28h-2.88l-5.26-17.42Z"/><path d="M1297.48,144.34c0,6.44-4.46,9.25-8.67,9.25-4.72,0-8.35-3.46-8.35-9,0-5.83,3.81-9.25,8.63-9.25C1294.1,135.37,1297.48,139,1297.48,144.34Zm-13.82.18c0,3.81,2.2,6.69,5.29,6.69s5.29-2.84,5.29-6.77c0-2.95-1.47-6.69-5.22-6.69S1283.66,141.21,1283.66,144.52Z"/><path d="M1301.48,141.21c0-2.06,0-3.82-.15-5.44h2.78l.1,3.42h.15a5.23,5.23,0,0,1,4.82-3.82,3.52,3.52,0,0,1,.9.11v3a4.85,4.85,0,0,0-1.08-.11c-2.23,0-3.81,1.69-4.25,4.07a9.06,9.06,0,0,0-.14,1.47v9.29h-3.13Z"/><path d="M1316.53,143.76h.07c.43-.61,1-1.37,1.55-2l5.11-6h3.81l-6.73,7.16,7.67,10.26h-3.85l-6-8.35-1.62,1.8v6.55h-3.13V127.63h3.13Z"/><path d="M1202.49,180.47a36.61,36.61,0,0,1,6-.46c3.1,0,5.37.72,6.8,2a6.51,6.51,0,0,1,2.13,5.08,7.16,7.16,0,0,1-1.87,5.18c-1.66,1.76-4.36,2.66-7.42,2.66a10.83,10.83,0,0,1-2.52-.21v9.72h-3.13Zm3.13,11.7a10.55,10.55,0,0,0,2.59.25c3.78,0,6.09-1.83,6.09-5.18s-2.27-4.75-5.73-4.75a13.46,13.46,0,0,0-3,.25Z"/><path d="M1222.4,196.31c.07,4.29,2.81,6.05,6,6.05a11.55,11.55,0,0,0,4.83-.9l.54,2.27a14.23,14.23,0,0,1-5.8,1.08c-5.36,0-8.56-3.53-8.56-8.79s3.09-9.39,8.17-9.39c5.68,0,7.2,5,7.2,8.21a13.13,13.13,0,0,1-.11,1.47Zm9.29-2.27c0-2-.83-5.14-4.4-5.14-3.2,0-4.6,2.95-4.86,5.14Z"/><path d="M1240.43,196.31c.08,4.29,2.81,6.05,6,6.05a11.5,11.5,0,0,0,4.82-.9l.54,2.27a14.13,14.13,0,0,1-5.79,1.08c-5.37,0-8.57-3.53-8.57-8.79s3.1-9.39,8.17-9.39c5.69,0,7.2,5,7.2,8.21a11.08,11.08,0,0,1-.11,1.47Zm9.29-2.27c0-2-.83-5.14-4.39-5.14-3.2,0-4.61,2.95-4.86,5.14Z"/><path d="M1256.71,192.46c0-2.05,0-3.81-.15-5.43h2.77l.11,3.41h.14a5.25,5.25,0,0,1,4.83-3.81,3.52,3.52,0,0,1,.9.11v3a4.38,4.38,0,0,0-1.08-.11c-2.23,0-3.82,1.69-4.25,4.06a9.31,9.31,0,0,0-.14,1.48v9.29h-3.13Z"/><path d="M1279.93,182v5h4.53v2.41h-4.53v9.39c0,2.16.61,3.39,2.37,3.39a7,7,0,0,0,1.84-.22l.14,2.38a7.79,7.79,0,0,1-2.81.43,4.42,4.42,0,0,1-3.42-1.33c-.9-.94-1.22-2.49-1.22-4.54v-9.5h-2.7V187h2.7v-4.18Z"/><path d="M1303.58,195.59c0,6.45-4.47,9.25-8.68,9.25-4.72,0-8.35-3.45-8.35-9,0-5.83,3.82-9.25,8.64-9.25C1300.19,186.63,1303.58,190.27,1303.58,195.59Zm-13.83.18c0,3.82,2.2,6.7,5.29,6.7s5.3-2.85,5.3-6.77c0-2.95-1.48-6.69-5.22-6.69S1289.75,192.46,1289.75,195.77Z"/><path d="M1314.77,201.21a8.33,8.33,0,0,0,4.18,1.26c2.3,0,3.38-1.15,3.38-2.59s-.9-2.34-3.24-3.21c-3.13-1.11-4.6-2.84-4.6-4.93,0-2.81,2.26-5.11,6-5.11a8.64,8.64,0,0,1,4.28,1.08L1324,190a6.85,6.85,0,0,0-3.57-1c-1.87,0-2.91,1.07-2.91,2.37s1,2.09,3.31,3c3,1.15,4.57,2.67,4.57,5.26,0,3.06-2.37,5.22-6.51,5.22a10,10,0,0,1-4.9-1.19Z"/><path d="M1331.22,196.31c.08,4.29,2.81,6.05,6,6.05a11.5,11.5,0,0,0,4.82-.9l.54,2.27a14.13,14.13,0,0,1-5.79,1.08c-5.37,0-8.57-3.53-8.57-8.79s3.1-9.39,8.17-9.39c5.69,0,7.2,5,7.2,8.21a11.08,11.08,0,0,1-.11,1.47Zm9.29-2.27c0-2-.83-5.14-4.39-5.14-3.2,0-4.61,2.95-4.86,5.14Z"/><path d="M1347.5,192.46c0-2.05,0-3.81-.15-5.43h2.77l.11,3.41h.15a5.23,5.23,0,0,1,4.82-3.81,3.52,3.52,0,0,1,.9.11v3a4.33,4.33,0,0,0-1.08-.11c-2.23,0-3.82,1.69-4.25,4.06a9.31,9.31,0,0,0-.14,1.48v9.29h-3.13Z"/><path d="M1361.39,187l3.42,9.79a43.51,43.51,0,0,1,1.41,4.46h.1c.4-1.44.9-2.88,1.48-4.46l3.38-9.79h3.32l-6.84,17.42h-3L1358,187Z"/><path d="M1378.89,196.31c.07,4.29,2.81,6.05,6,6.05a11.55,11.55,0,0,0,4.83-.9l.54,2.27a14.23,14.23,0,0,1-5.8,1.08c-5.36,0-8.57-3.53-8.57-8.79s3.1-9.39,8.18-9.39c5.68,0,7.19,5,7.19,8.21a13.66,13.66,0,0,1-.1,1.47Zm9.28-2.27c0-2-.82-5.14-4.39-5.14-3.2,0-4.6,2.95-4.86,5.14Z"/><path d="M1395.16,192.46c0-2.05,0-3.81-.14-5.43h2.77l.11,3.41h.14a5.23,5.23,0,0,1,4.82-3.81,3.52,3.52,0,0,1,.9.11v3a4.27,4.27,0,0,0-1.08-.11c-2.23,0-3.81,1.69-4.24,4.06a8.22,8.22,0,0,0-.15,1.48v9.29h-3.13Z"/><path d="M1212,247.65l-.25-2.2h-.11a6.48,6.48,0,0,1-5.33,2.59,5,5,0,0,1-5.33-5c0-4.21,3.75-6.52,10.48-6.48v-.36c0-1.44-.4-4-4-4a8.64,8.64,0,0,0-4.54,1.3l-.72-2.09a10.79,10.79,0,0,1,5.73-1.55c5.33,0,6.62,3.64,6.62,7.13v6.51a24.19,24.19,0,0,0,.29,4.18Zm-.47-8.89c-3.45-.08-7.38.54-7.38,3.92a2.8,2.8,0,0,0,3,3,4.33,4.33,0,0,0,4.21-2.91,3.31,3.31,0,0,0,.18-1Z"/><path d="M1219.73,234.94c0-1.8,0-3.27-.14-4.71h2.81l.18,2.88h.07a6.4,6.4,0,0,1,5.76-3.28c2.41,0,6.15,1.44,6.15,7.41v10.41h-3.16V237.6c0-2.8-1.05-5.14-4-5.14a4.49,4.49,0,0,0-4.25,3.24,4.33,4.33,0,0,0-.22,1.47v10.48h-3.17Z"/><path d="M1254.76,222.09v21.06c0,1.55,0,3.31.14,4.5h-2.84l-.14-3h-.08a6.42,6.42,0,0,1-5.93,3.42c-4.22,0-7.46-3.56-7.46-8.85,0-5.8,3.57-9.36,7.81-9.36a5.83,5.83,0,0,1,5.26,2.66h.07v-10.4Zm-3.17,15.23a5.55,5.55,0,0,0-.14-1.34,4.67,4.67,0,0,0-4.57-3.67c-3.28,0-5.22,2.88-5.22,6.73,0,3.53,1.72,6.45,5.14,6.45a4.77,4.77,0,0,0,4.65-3.78,5.44,5.44,0,0,0,.14-1.37Z"/><path d="M1271.46,225.22v5H1276v2.41h-4.54V242c0,2.16.62,3.39,2.38,3.39a7,7,0,0,0,1.84-.22l.14,2.38a7.79,7.79,0,0,1-2.81.43,4.42,4.42,0,0,1-3.42-1.33c-.9-.94-1.22-2.49-1.22-4.54v-9.5h-2.7v-2.41h2.7v-4.18Z"/><path d="M1295.12,238.79c0,6.45-4.47,9.25-8.68,9.25-4.72,0-8.35-3.45-8.35-9,0-5.83,3.82-9.25,8.64-9.25C1291.73,229.83,1295.12,233.47,1295.12,238.79Zm-13.83.18c0,3.82,2.2,6.7,5.29,6.7s5.3-2.85,5.3-6.77c0-3-1.48-6.69-5.22-6.69S1281.29,235.66,1281.29,239Z"/><path d="M1306.75,235.91c0-2.23-.08-4-.15-5.68h2.84l.15,3h.07a6.86,6.86,0,0,1,6.19-3.38c4.21,0,7.38,3.56,7.38,8.85,0,6.27-3.81,9.36-7.92,9.36a6.09,6.09,0,0,1-5.36-2.73h-.07v9.46h-3.13Zm3.13,4.65a7.28,7.28,0,0,0,.14,1.29,4.89,4.89,0,0,0,4.75,3.71c3.35,0,5.29-2.74,5.29-6.73,0-3.49-1.83-6.48-5.18-6.48a5.06,5.06,0,0,0-4.79,3.92,5.12,5.12,0,0,0-.21,1.3Z"/><path d="M1329,239.51c.07,4.29,2.81,6.05,6,6.05a11.5,11.5,0,0,0,4.82-.9l.54,2.27a14.17,14.17,0,0,1-5.79,1.08c-5.37,0-8.57-3.53-8.57-8.79s3.09-9.39,8.17-9.39c5.69,0,7.2,5,7.2,8.21a11.08,11.08,0,0,1-.11,1.47Zm9.29-2.27c0-2-.83-5.14-4.39-5.14-3.21,0-4.61,3-4.86,5.14Z"/><path d="M1347,239.51c.07,4.29,2.81,6.05,6,6.05a11.55,11.55,0,0,0,4.83-.9l.54,2.27a14.23,14.23,0,0,1-5.8,1.08c-5.36,0-8.57-3.53-8.57-8.79s3.1-9.39,8.18-9.39c5.68,0,7.2,5,7.2,8.21a13.13,13.13,0,0,1-.11,1.47Zm9.29-2.27c0-2-.83-5.14-4.4-5.14-3.2,0-4.6,3-4.86,5.14Z"/><path d="M1363.3,235.66c0-2,0-3.81-.14-5.43h2.77l.11,3.42h.14a5.23,5.23,0,0,1,4.82-3.82,3.52,3.52,0,0,1,.9.11v3a4.33,4.33,0,0,0-1.08-.11c-2.23,0-3.81,1.69-4.24,4.06a8.22,8.22,0,0,0-.15,1.48v9.29h-3.13Z"/><path d="M1202.45,275.66a35.37,35.37,0,0,1,6-.47c3.1,0,5.36.72,6.8,2a6.51,6.51,0,0,1,2.13,5.08,7.16,7.16,0,0,1-1.87,5.18c-1.66,1.77-4.36,2.67-7.42,2.67a10.8,10.8,0,0,1-2.52-.22v9.72h-3.13Zm3.13,11.69a10.44,10.44,0,0,0,2.59.26c3.78,0,6.09-1.84,6.09-5.19s-2.27-4.75-5.73-4.75a13.46,13.46,0,0,0-3,.25Z"/><path d="M1220.92,287.64c0-2.05,0-3.81-.15-5.43h2.77l.11,3.42h.15a5.23,5.23,0,0,1,4.82-3.82,3.52,3.52,0,0,1,.9.11v3a4.33,4.33,0,0,0-1.08-.11c-2.23,0-3.82,1.69-4.25,4.07a9.06,9.06,0,0,0-.14,1.47v9.29h-3.13Z"/><path d="M1236.36,277.31a1.86,1.86,0,0,1-2,1.94,1.88,1.88,0,0,1-1.91-1.94,1.94,1.94,0,0,1,2-2A1.88,1.88,0,0,1,1236.36,277.31Zm-3.53,22.32V282.21H1236v17.42Z"/><path d="M1242.48,282.21l3.42,9.79a41,41,0,0,1,1.4,4.46h.11c.4-1.44.9-2.88,1.48-4.46l3.38-9.79h3.31l-6.84,17.42h-3l-6.62-17.42Z"/><path d="M1268.08,299.63l-.26-2.2h-.11a6.47,6.47,0,0,1-5.32,2.59,5,5,0,0,1-5.33-5c0-4.21,3.74-6.51,10.48-6.48v-.36c0-1.44-.4-4-4-4a8.61,8.61,0,0,0-4.54,1.3l-.72-2.09a10.78,10.78,0,0,1,5.72-1.55c5.33,0,6.63,3.64,6.63,7.13v6.51a24.19,24.19,0,0,0,.29,4.18Zm-.47-8.89c-3.46-.07-7.38.54-7.38,3.92a2.8,2.8,0,0,0,3,3,4.35,4.35,0,0,0,4.21-2.91,3.26,3.26,0,0,0,.18-1Z"/><path d="M1279.45,277.2v5H1284v2.41h-4.54V294c0,2.16.61,3.39,2.38,3.39a6.83,6.83,0,0,0,1.83-.22l.15,2.38a7.83,7.83,0,0,1-2.81.43,4.4,4.4,0,0,1-3.42-1.33c-.9-.94-1.22-2.49-1.22-4.54v-9.5h-2.7v-2.41h2.7V278Z"/><path d="M1289.1,291.49c.07,4.29,2.81,6.05,6,6.05a11.53,11.53,0,0,0,4.82-.9l.54,2.27a14.19,14.19,0,0,1-5.8,1.08c-5.36,0-8.56-3.53-8.56-8.78s3.09-9.4,8.17-9.4c5.69,0,7.2,5,7.2,8.21a10.93,10.93,0,0,1-.11,1.47Zm9.29-2.26c0-2-.83-5.15-4.39-5.15-3.21,0-4.61,2.95-4.86,5.15Z"/><path d="M1202.45,342.83V318.57h3.42l7.77,12.27a68.5,68.5,0,0,1,4.36,7.89l.07,0c-.29-3.24-.36-6.19-.36-10V318.57h3v24.26h-3.16l-7.71-12.31a76.38,76.38,0,0,1-4.53-8.1l-.11,0c.18,3.05.25,6,.25,10v10.37Z"/><path d="M1227.79,334.69c.08,4.29,2.81,6.05,6,6.05a11.5,11.5,0,0,0,4.82-.9l.54,2.27a14.13,14.13,0,0,1-5.79,1.08c-5.37,0-8.57-3.53-8.57-8.78s3.1-9.4,8.17-9.4c5.69,0,7.2,5,7.2,8.21a10.93,10.93,0,0,1-.11,1.47Zm9.29-2.26c0-2-.83-5.15-4.39-5.15-3.21,0-4.61,3-4.86,5.15Z"/><path d="M1247.88,320.4v5h4.54v2.41h-4.54v9.39c0,2.16.61,3.39,2.38,3.39a6.89,6.89,0,0,0,1.83-.22l.15,2.38a7.87,7.87,0,0,1-2.81.43,4.39,4.39,0,0,1-3.42-1.33c-.9-.94-1.22-2.49-1.22-4.54v-9.5h-2.71v-2.41h2.71v-4.18Z"/><path d="M1257.56,325.41l2.31,8.85c.5,1.95,1,3.75,1.29,5.55h.11c.4-1.77,1-3.64,1.55-5.51l2.84-8.89h2.67l2.7,8.71c.64,2.09,1.15,3.92,1.54,5.69h.11a54.57,54.57,0,0,1,1.33-5.66l2.49-8.74h3.13L1274,342.83h-2.88l-2.66-8.32c-.61-1.94-1.11-3.67-1.55-5.72h-.07a51.32,51.32,0,0,1-1.58,5.76l-2.81,8.28h-2.88l-5.26-17.42Z"/><path d="M1298.21,334c0,6.45-4.47,9.25-8.68,9.25-4.71,0-8.35-3.45-8.35-9,0-5.83,3.82-9.25,8.64-9.25C1294.82,325,1298.21,328.65,1298.21,334Zm-13.83.18c0,3.82,2.2,6.7,5.29,6.7s5.3-2.84,5.3-6.77c0-2.95-1.48-6.69-5.22-6.69S1284.38,330.84,1284.38,334.15Z"/><path d="M1302.2,330.84c0-2,0-3.81-.14-5.43h2.77l.11,3.42h.14a5.24,5.24,0,0,1,4.83-3.82,3.52,3.52,0,0,1,.9.11v3a4.38,4.38,0,0,0-1.08-.11c-2.23,0-3.82,1.69-4.25,4.07a9.06,9.06,0,0,0-.14,1.47v9.29h-3.14Z"/><path d="M1317.25,333.4h.07c.44-.61,1-1.37,1.55-2l5.11-6h3.82l-6.73,7.16,7.66,10.26h-3.85l-6-8.35-1.62,1.8v6.55h-3.13V317.27h3.13Z"/><path d="M1204.14,393.22a36.44,36.44,0,0,1,6-.47c3.1,0,5.37.73,6.81,2a6.53,6.53,0,0,1,2.12,5.08,7.16,7.16,0,0,1-1.87,5.18c-1.66,1.76-4.36,2.66-7.42,2.66a10.83,10.83,0,0,1-2.52-.21v9.72h-3.13Zm3.13,11.7a10.58,10.58,0,0,0,2.6.25c3.78,0,6.08-1.83,6.08-5.18s-2.27-4.75-5.72-4.75a13.5,13.5,0,0,0-3,.25Z"/><path d="M1224.05,409.06c.07,4.28,2.81,6.05,6,6.05a11.53,11.53,0,0,0,4.82-.9l.54,2.27a14.19,14.19,0,0,1-5.8,1.08c-5.36,0-8.56-3.53-8.56-8.79s3.09-9.39,8.17-9.39c5.69,0,7.2,5,7.2,8.21a11.08,11.08,0,0,1-.11,1.47Zm9.29-2.27c0-2-.83-5.14-4.39-5.14-3.21,0-4.61,3-4.86,5.14Z"/><path d="M1242.09,409.06c.07,4.28,2.8,6.05,6,6.05a11.55,11.55,0,0,0,4.83-.9l.54,2.27a14.23,14.23,0,0,1-5.8,1.08c-5.36,0-8.57-3.53-8.57-8.79s3.1-9.39,8.17-9.39c5.69,0,7.2,5,7.2,8.21a13.66,13.66,0,0,1-.1,1.47Zm9.28-2.27c0-2-.82-5.14-4.39-5.14-3.2,0-4.6,3-4.86,5.14Z"/><path d="M1258.36,405.21c0-2,0-3.82-.15-5.44H1261l.1,3.42h.15a5.22,5.22,0,0,1,4.82-3.81,3.13,3.13,0,0,1,.9.11v3a4.9,4.9,0,0,0-1.08-.1c-2.23,0-3.81,1.69-4.25,4.06a9.31,9.31,0,0,0-.14,1.48v9.29h-3.13Z"/><path d="M1283.63,396.75h-.07l-4.07,2.2-.61-2.41,5.11-2.74h2.7v23.4h-3.06Z"/><path d="M1202.41,603.21a11,11,0,0,0,5.61,1.59c3.2,0,5.08-1.69,5.08-4.14,0-2.27-1.3-3.56-4.58-4.82-4-1.41-6.4-3.46-6.4-6.88,0-3.78,3.13-6.59,7.84-6.59a11.05,11.05,0,0,1,5.37,1.19l-.87,2.56a9.53,9.53,0,0,0-4.6-1.16c-3.32,0-4.57,2-4.57,3.64,0,2.27,1.47,3.38,4.82,4.68,4.1,1.58,6.19,3.56,6.19,7.13,0,3.74-2.77,7-8.5,7a12.48,12.48,0,0,1-6.19-1.55Z"/><path d="M1222.46,598.9c.07,4.28,2.8,6,6,6a11.39,11.39,0,0,0,4.83-.9l.54,2.27a14.23,14.23,0,0,1-5.8,1.08c-5.36,0-8.57-3.53-8.57-8.78s3.1-9.4,8.17-9.4c5.69,0,7.2,5,7.2,8.21a13.88,13.88,0,0,1-.1,1.48Zm9.28-2.27c0-2-.82-5.15-4.39-5.15-3.2,0-4.6,2.95-4.86,5.15Z"/><path d="M1238.73,595c0-2,0-3.81-.15-5.43h2.78l.1,3.42h.15a5.23,5.23,0,0,1,4.82-3.82,3.52,3.52,0,0,1,.9.11v3a4.85,4.85,0,0,0-1.08-.11c-2.23,0-3.81,1.69-4.25,4.07a9.06,9.06,0,0,0-.14,1.47V607h-3.13Z"/><path d="M1252.62,589.61l3.42,9.79a43.51,43.51,0,0,1,1.41,4.46h.11c.39-1.44.9-2.88,1.47-4.46l3.39-9.79h3.31L1258.89,607h-3l-6.62-17.42Z"/><path d="M1270.12,598.9c.07,4.28,2.81,6,6,6a11.38,11.38,0,0,0,4.82-.9l.54,2.27a14.23,14.23,0,0,1-5.8,1.08c-5.36,0-8.56-3.53-8.56-8.78s3.09-9.4,8.17-9.4c5.69,0,7.2,5,7.2,8.21a13.35,13.35,0,0,1-.11,1.48Zm9.29-2.27c0-2-.83-5.15-4.39-5.15-3.21,0-4.61,2.95-4.86,5.15Z"/><path d="M1286.39,595c0-2,0-3.81-.14-5.43H1289l.11,3.42h.14a5.23,5.23,0,0,1,4.82-3.82,3.46,3.46,0,0,1,.9.11v3a4.79,4.79,0,0,0-1.08-.11c-2.23,0-3.81,1.69-4.24,4.07a8,8,0,0,0-.15,1.47V607h-3.13Z"/><path d="M1311.66,586.58h-.07l-4.07,2.2-.61-2.41,5.11-2.74h2.7V607h-3.06Z"/><path d="M1202.1,791.82a11,11,0,0,0,5.61,1.59c3.21,0,5.08-1.69,5.08-4.14,0-2.27-1.3-3.56-4.57-4.82-4-1.41-6.41-3.46-6.41-6.88,0-3.78,3.13-6.59,7.85-6.59a11,11,0,0,1,5.36,1.19l-.86,2.56a9.54,9.54,0,0,0-4.61-1.16c-3.31,0-4.57,2-4.57,3.64,0,2.27,1.47,3.38,4.82,4.68,4.11,1.58,6.19,3.56,6.19,7.13,0,3.74-2.77,7-8.49,7a12.45,12.45,0,0,1-6.19-1.55Z"/><path d="M1221.14,778.22l2.31,8.85c.5,1.95,1,3.75,1.29,5.55h.11c.4-1.77,1-3.64,1.55-5.51l2.84-8.89h2.67l2.69,8.71c.65,2.09,1.16,3.92,1.55,5.69h.11a54.57,54.57,0,0,1,1.33-5.66l2.49-8.74h3.13l-5.62,17.42h-2.88l-2.66-8.32a57.85,57.85,0,0,1-1.55-5.72h-.07a51.32,51.32,0,0,1-1.58,5.76l-2.81,8.28h-2.88l-5.26-17.42Z"/><path d="M1255.88,795.64l-.25-2.2h-.11a6.48,6.48,0,0,1-5.33,2.6,5,5,0,0,1-5.32-5c0-4.21,3.74-6.51,10.47-6.48v-.36c0-1.44-.39-4-4-4a8.67,8.67,0,0,0-4.53,1.3l-.72-2.09a10.75,10.75,0,0,1,5.72-1.55c5.33,0,6.62,3.64,6.62,7.13v6.51a24.12,24.12,0,0,0,.29,4.18Zm-.47-8.89c-3.45-.07-7.38.54-7.38,3.92a2.81,2.81,0,0,0,3,3,4.32,4.32,0,0,0,4.21-2.92,3.21,3.21,0,0,0,.18-1Z"/><path d="M1263.59,783.65c0-2,0-3.81-.15-5.43h2.77l.11,3.42h.15a5.23,5.23,0,0,1,4.82-3.82,3.52,3.52,0,0,1,.9.11v3a4.85,4.85,0,0,0-1.08-.11c-2.23,0-3.82,1.69-4.25,4.07a9.06,9.06,0,0,0-.14,1.47v9.29h-3.13Z"/><path d="M1275.5,782.93c0-1.8,0-3.27-.14-4.71h2.77l.14,2.81h.11a6,6,0,0,1,5.47-3.21,5.14,5.14,0,0,1,4.93,3.49h.08a7.16,7.16,0,0,1,1.94-2.26,5.9,5.9,0,0,1,3.85-1.23c2.31,0,5.73,1.51,5.73,7.56v10.26h-3.1v-9.86c0-3.35-1.23-5.37-3.78-5.37a4.11,4.11,0,0,0-3.74,2.88,5.09,5.09,0,0,0-.26,1.59v10.76h-3.09V785.2c0-2.77-1.23-4.79-3.64-4.79a4.33,4.33,0,0,0-3.92,3.17,4.38,4.38,0,0,0-.25,1.55v10.51h-3.1Z"/><path d="M1313.27,771.38h3.13v11.7h.11c.64-.94,1.29-1.8,1.9-2.59l7.42-9.11h3.89l-8.79,10.29,9.47,14h-3.71l-8-11.91-2.3,2.66v9.25h-3.13Z"/><path d="M1334.43,787.5c.08,4.29,2.81,6,6,6a11.34,11.34,0,0,0,4.82-.9l.54,2.27A14.13,14.13,0,0,1,1340,796c-5.37,0-8.57-3.53-8.57-8.78s3.1-9.4,8.17-9.4c5.69,0,7.2,5,7.2,8.21a10.93,10.93,0,0,1-.11,1.47Zm9.29-2.26c0-2-.83-5.15-4.39-5.15-3.21,0-4.61,2.95-4.86,5.15Z"/><path d="M1351.86,778.22l3.81,10.29c.4,1.15.83,2.52,1.12,3.57h.07c.32-1.05.68-2.38,1.12-3.64l3.45-10.22h3.35L1360,790.64c-2.27,6-3.82,9-6,10.9a8.52,8.52,0,0,1-3.88,2.05l-.8-2.66a8.25,8.25,0,0,0,2.77-1.55,9.48,9.48,0,0,0,2.67-3.52,2.42,2.42,0,0,0,.25-.76,2.66,2.66,0,0,0-.22-.83l-6.44-16Z"/><circle cx="850" cy="277" r="65.5" fill="#fff"/><path d="M850,213a64,64,0,1,1-64,64,64.07,64.07,0,0,1,64-64m0-3a67,67,0,1,0,67,67,67,67,0,0,0-67-67Z"/><path d="M851.19,278.38c0,11.14-6.77,17-15,17-8.55,0-14.55-6.62-14.55-16.42,0-10.27,6.39-17,15-17C845.48,262,851.19,268.78,851.19,278.38Zm-25.1.53c0,6.91,3.74,13.1,10.32,13.1s10.37-6.09,10.37-13.44c0-6.43-3.36-13.15-10.32-13.15S826.09,271.8,826.09,278.91Z"/><path d="M853.83,292.4a2.84,2.84,0,0,1,2.88-3,3,3,0,1,1-2.88,3Z"/><path d="M863.77,292.4a2.84,2.84,0,0,1,2.88-3,3,3,0,1,1-2.88,3Z"/><path d="M873.7,292.4a2.84,2.84,0,0,1,2.88-3,3,3,0,1,1-2.88,3Z"/><line x1="625.5" y1="277.5" x2="785.5" y2="277.5" fill="none" stroke="#000" stroke-miterlimit="10" stroke-width="3"/><line x1="688" y1="295.5" x2="654.91" y2="295.5" fill="none" stroke="#000" stroke-miterlimit="10" stroke-width="3"/><polygon points="663.34 284.39 658.62 295.5 663.34 306.61 637 295.5 663.34 284.39"/><rect x="1071.5" y="738.5" width="351.5" height="95" fill="none" stroke="#000" stroke-miterlimit="10" stroke-width="3"/><path d="M1129.46,689.41c0,8.36-5.07,12.78-11.27,12.78-6.4,0-10.9-5-10.9-12.31,0-7.7,4.79-12.74,11.26-12.74C1125.18,677.14,1129.46,682.21,1129.46,689.41Zm-18.82.4c0,5.18,2.8,9.83,7.74,9.83s7.77-4.57,7.77-10.08c0-4.82-2.52-9.86-7.74-9.86S1110.64,684.48,1110.64,689.81Z"/><path d="M1131.44,699.92a2.12,2.12,0,0,1,2.16-2.26,2.27,2.27,0,0,1,0,4.53A2.12,2.12,0,0,1,1131.44,699.92Z"/><path d="M1138.9,699.92a2.14,2.14,0,1,1,2.12,2.27A2.12,2.12,0,0,1,1138.9,699.92Z"/><path d="M1146.35,699.92a2.12,2.12,0,0,1,2.16-2.26,2.27,2.27,0,0,1,0,4.53A2.12,2.12,0,0,1,1146.35,699.92Z"/><path d="M1223.57,667.65c0,8.35-5.07,12.78-11.27,12.78-6.4,0-10.9-5-10.9-12.31,0-7.71,4.78-12.75,11.26-12.75S1223.57,660.45,1223.57,667.65Zm-18.82.39c0,5.19,2.8,9.83,7.73,9.83s7.78-4.57,7.78-10.08c0-4.82-2.52-9.86-7.74-9.86S1204.75,662.72,1204.75,668Z"/><path d="M1232,657.61v5h4.54V665H1232v9.4c0,2.15.61,3.38,2.38,3.38a6.89,6.89,0,0,0,1.83-.22l.15,2.38a7.87,7.87,0,0,1-2.81.43,4.39,4.39,0,0,1-3.42-1.33c-.9-.94-1.22-2.49-1.22-4.54V665h-2.7v-2.41h2.7v-4.18Z"/><path d="M1240.06,654.47h3.17v10.87h.07a5.87,5.87,0,0,1,2.27-2.23,6.5,6.5,0,0,1,3.24-.9c2.34,0,6.08,1.44,6.08,7.45V680h-3.17V670c0-2.8-1-5.18-4-5.18a4.54,4.54,0,0,0-4.24,3.17,3.65,3.65,0,0,0-.22,1.51V680h-3.17Z"/><path d="M1261.8,671.9c.08,4.28,2.81,6,6,6a11.31,11.31,0,0,0,4.82-.9l.54,2.27a14.13,14.13,0,0,1-5.79,1.08c-5.37,0-8.57-3.53-8.57-8.78s3.1-9.4,8.17-9.4c5.69,0,7.2,5,7.2,8.21a11.26,11.26,0,0,1-.11,1.48Zm9.29-2.27c0-2-.83-5.15-4.39-5.15-3.2,0-4.61,2.95-4.86,5.15Z"/><path d="M1278.08,668c0-2,0-3.81-.15-5.43h2.77l.11,3.42h.15a5.23,5.23,0,0,1,4.82-3.82,3.52,3.52,0,0,1,.9.11v3a4.92,4.92,0,0,0-1.08-.11c-2.23,0-3.82,1.69-4.25,4.07a9.06,9.06,0,0,0-.14,1.47V680h-3.13Z"/><path d="M1289.42,676.79a8.29,8.29,0,0,0,4.17,1.26c2.31,0,3.39-1.15,3.39-2.59s-.9-2.34-3.24-3.21c-3.14-1.11-4.61-2.84-4.61-4.93,0-2.8,2.27-5.11,6-5.11a8.75,8.75,0,0,1,4.28,1.08l-.79,2.31a6.68,6.68,0,0,0-3.56-1c-1.87,0-2.92,1.08-2.92,2.37s1,2.09,3.31,3c3,1.15,4.58,2.66,4.58,5.25,0,3.06-2.38,5.22-6.52,5.22a10,10,0,0,1-4.9-1.19Z"/><path d="M1209.6,698.25a23.8,23.8,0,0,0-4.53,14.72,24.31,24.31,0,0,0,4.53,14.62h-2.48a23.28,23.28,0,0,1-4.71-14.62,23.7,23.7,0,0,1,4.71-14.72Z"/><path d="M1222.6,723.23l-.25-2.19h-.11a6.5,6.5,0,0,1-5.33,2.59,5,5,0,0,1-5.33-5c0-4.21,3.75-6.51,10.48-6.48v-.36c0-1.44-.4-4-4-4a8.73,8.73,0,0,0-4.54,1.3l-.72-2.09a10.82,10.82,0,0,1,5.73-1.55c5.33,0,6.62,3.64,6.62,7.13v6.51a24.12,24.12,0,0,0,.29,4.18Zm-.47-8.89c-3.45-.07-7.38.54-7.38,3.92a2.81,2.81,0,0,0,3,3,4.32,4.32,0,0,0,4.21-2.92,3.21,3.21,0,0,0,.18-1Z"/><path d="M1230.31,711.5c0-2.24-.08-4-.15-5.69H1233l.15,3h.07a6.85,6.85,0,0,1,6.19-3.39c4.21,0,7.38,3.57,7.38,8.86,0,6.26-3.81,9.36-7.92,9.36a6.1,6.1,0,0,1-5.36-2.74h-.07v9.47h-3.13Zm3.13,4.64a7.4,7.4,0,0,0,.14,1.3,4.89,4.89,0,0,0,4.75,3.7c3.35,0,5.29-2.73,5.29-6.73,0-3.49-1.83-6.48-5.18-6.48a5.06,5.06,0,0,0-4.79,3.93,5,5,0,0,0-.21,1.29Z"/><path d="M1250.79,711.5c0-2.24-.07-4-.15-5.69h2.85l.14,3h.07a6.85,6.85,0,0,1,6.2-3.39c4.21,0,7.37,3.57,7.37,8.86,0,6.26-3.81,9.36-7.91,9.36a6.12,6.12,0,0,1-5.37-2.74h-.07v9.47h-3.13Zm3.13,4.64a7.4,7.4,0,0,0,.14,1.3,4.9,4.9,0,0,0,4.76,3.7c3.34,0,5.29-2.73,5.29-6.73,0-3.49-1.84-6.48-5.19-6.48a5,5,0,0,0-4.78,3.93,5,5,0,0,0-.22,1.29Z"/><path d="M1270.84,720a8.33,8.33,0,0,0,4.18,1.26c2.3,0,3.38-1.15,3.38-2.59s-.9-2.34-3.24-3.2c-3.13-1.12-4.61-2.85-4.61-4.94,0-2.8,2.27-5.11,6-5.11a8.76,8.76,0,0,1,4.29,1.08l-.8,2.31a6.68,6.68,0,0,0-3.56-1c-1.87,0-2.91,1.08-2.91,2.37,0,1.44,1,2.09,3.31,3,3,1.15,4.57,2.66,4.57,5.25,0,3.06-2.38,5.22-6.52,5.22a9.92,9.92,0,0,1-4.89-1.19Z"/><path d="M1283.08,727.66a52.57,52.57,0,0,0,2.16-8.61l3.53-.35a44,44,0,0,1-3.42,8.74Z"/><path d="M1300.22,711.5c0-2.24-.08-4-.15-5.69h2.85l.14,3h.07a6.85,6.85,0,0,1,6.19-3.39c4.21,0,7.38,3.57,7.38,8.86,0,6.26-3.81,9.36-7.92,9.36a6.1,6.1,0,0,1-5.36-2.74h-.07v9.47h-3.13Zm3.13,4.64a7.4,7.4,0,0,0,.14,1.3,4.89,4.89,0,0,0,4.75,3.7c3.35,0,5.29-2.73,5.29-6.73,0-3.49-1.83-6.48-5.18-6.48a5.06,5.06,0,0,0-4.79,3.93,5.44,5.44,0,0,0-.21,1.29Z"/><path d="M1322.46,715.1c.08,4.28,2.81,6,6,6a11.34,11.34,0,0,0,4.82-.9l.54,2.27a14.13,14.13,0,0,1-5.79,1.08c-5.37,0-8.57-3.53-8.57-8.78s3.1-9.4,8.17-9.4c5.69,0,7.2,5,7.2,8.21a11.26,11.26,0,0,1-.11,1.48Zm9.29-2.27c0-2-.83-5.15-4.39-5.15-3.21,0-4.61,3-4.86,5.15Z"/><path d="M1340.5,715.1c.07,4.28,2.81,6,6,6a11.39,11.39,0,0,0,4.83-.9l.54,2.27a14.23,14.23,0,0,1-5.8,1.08c-5.36,0-8.57-3.53-8.57-8.78s3.1-9.4,8.18-9.4c5.68,0,7.19,5,7.19,8.21a13.88,13.88,0,0,1-.1,1.48Zm9.29-2.27c0-2-.83-5.15-4.4-5.15-3.2,0-4.6,3-4.86,5.15Z"/><path d="M1356.77,711.24c0-2,0-3.81-.14-5.43h2.77l.11,3.42h.14a5.23,5.23,0,0,1,4.82-3.82,3.52,3.52,0,0,1,.9.11v3a4.79,4.79,0,0,0-1.08-.11c-2.23,0-3.81,1.69-4.24,4.07a8,8,0,0,0-.15,1.47v9.29h-3.13Z"/><path d="M1368.11,720a8.33,8.33,0,0,0,4.18,1.26c2.3,0,3.38-1.15,3.38-2.59s-.9-2.34-3.24-3.2c-3.13-1.12-4.61-2.85-4.61-4.94,0-2.8,2.27-5.11,6-5.11a8.79,8.79,0,0,1,4.29,1.08l-.8,2.31a6.68,6.68,0,0,0-3.56-1c-1.87,0-2.91,1.08-2.91,2.37,0,1.44,1,2.09,3.31,3,3,1.15,4.57,2.66,4.57,5.25,0,3.06-2.38,5.22-6.52,5.22a9.92,9.92,0,0,1-4.89-1.19Z"/><path d="M1380.89,727.59a24.37,24.37,0,0,0,4.53-14.73,23.86,23.86,0,0,0-4.53-14.61h2.45a23,23,0,0,1,4.71,14.65,23.39,23.39,0,0,1-4.71,14.69Z"/><rect x="892.5" y="305.5" width="128" height="76" fill="#fff"/><path d="M1019,307v73H894V307h125m3-3H891v79h131V304Z"/><path d="M930,354.86a14.82,14.82,0,0,0,7.49,2.11c4.27,0,6.77-2.25,6.77-5.52,0-3-1.73-4.75-6.1-6.43-5.28-1.87-8.55-4.61-8.55-9.17,0-5,4.18-8.78,10.47-8.78a14.66,14.66,0,0,1,7.15,1.58L946,332.06a12.87,12.87,0,0,0-6.15-1.54c-4.41,0-6.09,2.64-6.09,4.85,0,3,2,4.51,6.43,6.24,5.47,2.11,8.26,4.75,8.26,9.51,0,5-3.7,9.31-11.33,9.31a16.76,16.76,0,0,1-8.26-2.06Z"/><path d="M954.19,327.59h4.17V343.2h.15c.86-1.25,1.73-2.4,2.54-3.46l9.89-12.15h5.18l-11.71,13.73L977,360h-4.95l-10.65-15.89-3.08,3.55V360h-4.17Z"/><circle cx="297" cy="535" r="65.5" fill="#fff"/><path d="M297,471a64,64,0,1,1-64,64,64.07,64.07,0,0,1,64-64m0-3a67,67,0,1,0,67,67,67,67,0,0,0-67-67Z"/><path d="M274.78,521.23a47.9,47.9,0,0,1,8-.62c4.13,0,7.16,1,9.08,2.68a8.73,8.73,0,0,1,2.83,6.77,9.48,9.48,0,0,1-2.5,6.91c-2.2,2.36-5.81,3.56-9.89,3.56a14.41,14.41,0,0,1-3.36-.29v13h-4.17Zm4.17,15.6a14.07,14.07,0,0,0,3.46.34c5,0,8.11-2.45,8.11-6.92,0-4.27-3-6.33-7.63-6.33a17.81,17.81,0,0,0-3.94.33Z"/><path d="M298.83,553.2v-2.59l3.31-3.22c8-7.58,11.57-11.61,11.61-16.32,0-3.17-1.53-6.1-6.19-6.1a10.62,10.62,0,0,0-6.62,2.64l-1.35-3a13.68,13.68,0,0,1,8.84-3.17c6.72,0,9.55,4.61,9.55,9.07,0,5.76-4.18,10.42-10.75,16.76l-2.5,2.3v.1h14v3.5Z"/><rect x="233.5" y="590.5" width="128" height="76" fill="#fff"/><path d="M360,592v73H235V592H360m3-3H232v79H363V589Z"/><path d="M272.45,639.9a14.82,14.82,0,0,0,7.49,2.11c4.27,0,6.77-2.25,6.77-5.52,0-3-1.73-4.75-6.1-6.43-5.28-1.87-8.55-4.61-8.55-9.17,0-5,4.18-8.78,10.47-8.78a14.77,14.77,0,0,1,7.15,1.58l-1.15,3.41a12.85,12.85,0,0,0-6.14-1.54c-4.42,0-6.1,2.64-6.1,4.85,0,3,2,4.51,6.43,6.24,5.47,2.11,8.26,4.76,8.26,9.51,0,5-3.7,9.31-11.33,9.31a16.76,16.76,0,0,1-8.26-2.06Z"/><path d="M296.69,612.64h4.17v15.6H301c.86-1.25,1.73-2.4,2.54-3.46l9.89-12.14h5.19l-11.72,13.72L319.54,645h-5L303.94,629.1l-3.08,3.55V645h-4.17Z"/><line x1="148.5" y1="465.5" x2="148.5" y2="307.5" fill="none" stroke="#000" stroke-miterlimit="10" stroke-width="3"/><line x1="297.5" y1="468.5" x2="297.5" y2="322.5" fill="none" stroke="#000" stroke-miterlimit="10" stroke-width="3"/><line x1="527.5" y1="465.5" x2="527.5" y2="313.5" fill="none" stroke="#000" stroke-miterlimit="10" stroke-width="3"/><line x1="169.5" y1="453" x2="169.5" y2="419.91" fill="none" stroke="#000" stroke-miterlimit="10" stroke-width="3"/><polygon points="180.61 428.33 169.5 423.62 158.39 428.33 169.5 402 180.61 428.33"/><line x1="317.5" y1="454" x2="317.5" y2="420.91" fill="none" stroke="#000" stroke-miterlimit="10" stroke-width="3"/><polygon points="328.61 429.33 317.5 424.62 306.39 429.33 317.5 403 328.61 429.33"/><line x1="547.5" y1="403" x2="547.5" y2="436.09" fill="none" stroke="#000" stroke-miterlimit="10" stroke-width="3"/><polygon points="536.39 427.67 547.5 432.38 558.61 427.67 547.5 454 536.39 427.67"/><rect x="1071.5" y="453.5" width="351.5" height="95" fill="none" stroke="#000" stroke-miterlimit="10" stroke-width="3"/><path d="M1108.57,491.53a36.67,36.67,0,0,1,6-.47c3.09,0,5.36.72,6.8,2a6.51,6.51,0,0,1,2.12,5.07,7.17,7.17,0,0,1-1.87,5.19c-1.65,1.76-4.35,2.66-7.41,2.66a10.75,10.75,0,0,1-2.52-.22v9.72h-3.14Zm3.14,11.7a10.44,10.44,0,0,0,2.59.25c3.78,0,6.08-1.84,6.08-5.18s-2.27-4.75-5.72-4.75a12.79,12.79,0,0,0-3,.25Z"/><path d="M1126.61,515.5v-1.94l2.48-2.41c6-5.69,8.68-8.71,8.72-12.24,0-2.38-1.16-4.57-4.65-4.57a8,8,0,0,0-5,2l-1-2.23a10.25,10.25,0,0,1,6.62-2.38c5,0,7.16,3.46,7.16,6.8,0,4.32-3.13,7.81-8.06,12.57L1131,512.8v.08h10.51v2.62Z"/><path d="M1202.14,491.22a36.44,36.44,0,0,1,6-.47c3.1,0,5.37.73,6.81,2a6.53,6.53,0,0,1,2.12,5.08,7.16,7.16,0,0,1-1.87,5.18c-1.66,1.76-4.36,2.66-7.42,2.66a10.83,10.83,0,0,1-2.52-.21v9.72h-3.13Zm3.13,11.7a10.58,10.58,0,0,0,2.6.25c3.78,0,6.08-1.83,6.08-5.18s-2.27-4.75-5.72-4.75a13.5,13.5,0,0,0-3,.25Z"/><path d="M1222.05,507.06c.07,4.28,2.81,6.05,6,6.05a11.53,11.53,0,0,0,4.82-.9l.54,2.27a14.19,14.19,0,0,1-5.8,1.08c-5.36,0-8.56-3.53-8.56-8.79s3.09-9.39,8.17-9.39c5.69,0,7.2,5,7.2,8.21a11.08,11.08,0,0,1-.11,1.47Zm9.29-2.27c0-2-.83-5.14-4.39-5.14-3.21,0-4.61,3-4.86,5.14Z"/><path d="M1240.09,507.06c.07,4.28,2.8,6.05,6,6.05a11.55,11.55,0,0,0,4.83-.9l.54,2.27a14.23,14.23,0,0,1-5.8,1.08c-5.36,0-8.57-3.53-8.57-8.79s3.1-9.39,8.17-9.39c5.69,0,7.2,5,7.2,8.21a13.66,13.66,0,0,1-.1,1.47Zm9.28-2.27c0-2-.82-5.14-4.39-5.14-3.2,0-4.6,3-4.86,5.14Z"/><path d="M1256.36,503.21c0-2,0-3.82-.15-5.44H1259l.1,3.42h.15a5.22,5.22,0,0,1,4.82-3.81,3.13,3.13,0,0,1,.9.11v3a4.9,4.9,0,0,0-1.08-.1c-2.23,0-3.81,1.69-4.25,4.06a9.31,9.31,0,0,0-.14,1.48v9.29h-3.13Z"/><path d="M1274.75,515.2v-2l2.49-2.41c6-5.69,8.67-8.71,8.71-12.24,0-2.37-1.15-4.57-4.64-4.57a8,8,0,0,0-5,2l-1-2.23a10.25,10.25,0,0,1,6.62-2.38c5,0,7.17,3.46,7.17,6.81,0,4.32-3.13,7.81-8.07,12.56l-1.87,1.73v.07h10.51v2.63Z"/><line x1="277.5" y1="403" x2="277.5" y2="436.09" fill="none" stroke="#000" stroke-miterlimit="10" stroke-width="3"/><polygon points="266.39 427.67 277.5 432.38 288.61 427.67 277.5 454 266.39 427.67"/><line x1="126.5" y1="403" x2="126.5" y2="436.09" fill="none" stroke="#000" stroke-miterlimit="10" stroke-width="3"/><polygon points="115.39 427.67 126.5 432.38 137.61 427.67 126.5 454 115.39 427.67"/></svg>